<svg width="312" height="278" viewBox="0 0 312 278" fill="none" xmlns="http://www.w3.org/2000/svg">
<path d="M0.10791 148.777H13.0606V122.904L21.6527 134.016V110.016L13.0606 119.9V97.0633H0.10791V148.777ZM40.5488 148.777H50.013L40.5488 136.632V148.777ZM40.5488 106.56L49.2701 97.0956H40.5488V106.56ZM62.5781 148.777H65.1299V142.834L62.5781 148.777ZM83.0893 140.088H102.276L105.829 148.777H107.347V121.063L97.0111 97.0956H84.8659L83.0893 101.198V140.121V140.088ZM90.8416 112.212L97.754 129.106H83.8968L90.8093 112.212H90.8416ZM136.967 148.777H178.604V136.697H149.92V131.787H136.967V148.777ZM149.92 110.048V109.176H177.957V97.0956H136.967V110.081H149.92V110.048ZM199.47 148.777H205.962V140.282H212.39V132.562H222.048L226.635 140.282H228.929V144.126L231.706 148.777H246.953L235.97 131.787H199.438V148.777H199.47ZM243.852 110.048C242.592 103.427 237.876 98.2584 228.67 97.2571V110.048H243.852ZM205.672 97.0633H199.47V110.048H205.672V97.0633ZM288.395 149.843C300.282 149.843 311.07 143.383 311.07 127.232V97.0633H298.117V125.779C298.117 134.177 295.049 138.086 288.362 138.086C283.485 138.086 280.061 135.954 278.478 131.787H264.912C266.947 143.803 276.443 149.876 288.33 149.876L288.395 149.843ZM277.509 110.016V97.031H264.557V110.016H277.509Z" fill="#FEFEFE"/>
<path d="M228.96 144.126V140.282H226.667L228.96 144.126Z" fill="#FEFEFE"/>
<path d="M296.405 110.048H228.67V64.9884H287.264V43.2498H228.67V1H205.672V43.2175H148.628V64.9561H205.672V110.016H136.967V131.755H296.405V110.016V110.048ZM40.5487 76.9398H65.1298V151.297H40.5487V76.9398ZM107.347 151.297H83.0892V76.9398H107.347V151.297ZM228.993 254.951V202.332H291.689V180.271H228.993V140.25H205.995V180.271H143.912V202.332H205.995V254.951H140.456C135.74 235.086 126.599 208.954 116.811 187.829L98.8521 193.514C102.954 203.915 107.67 215.576 111.449 227.237L84.6719 231.662V171.162H126.566V57.1069H84.6719V1.64602H63.547V57.1069H21.6203V185.988H40.5164V171.194H63.1917V235.473C43.6496 238.93 25.6902 241.772 11.187 243.969L14.9662 266.353C43.6496 260.991 81.1511 254.369 117.684 247.134C119.88 255.015 121.463 262.251 122.723 268.55L132.187 265.384V277.659H299.183V254.983H228.928L228.993 254.951Z" stroke="#474747" stroke-width="0.57" stroke-miterlimit="1.12"/>
<path d="M21.6201 128.525L33.0547 143.286H40.5485V131.141L27.8542 114.829L40.5485 101.036V91.5723H32.8932L21.6201 104.525V128.525Z" fill="#CCFF00"/>
<path d="M107.347 111.89V139.604H119.299L107.347 111.89Z" fill="#CCFF00"/>
<path d="M65.1294 150.166V156.11H75.8533L79.4065 147.389H83.0888V108.498L65.1294 150.166Z" fill="#CCFF00"/>
<path d="M155.411 110.048H142.458V131.787H155.411V128.202H179.346V116.993H155.411V110.048Z" fill="#CCFF00"/>
<path d="M240.169 110.048H224.988V97.257C223.922 97.1278 222.824 97.0955 221.661 97.0955H201.99V110.08H195.788V131.819H232.32L231.222 130.107C236.713 127.232 240.525 122.226 240.525 113.957C240.525 112.632 240.396 111.34 240.169 110.08V110.048Z" fill="#CCFF00"/>
<path d="M212.422 121.257V109.176H223.566C228.96 109.176 230.866 111.631 230.866 115.119C230.866 119.609 227.701 121.289 223.566 121.289H212.422V121.257Z" fill="#373532"/>
<path d="M271.081 110.048H258.128V126.813C258.128 128.589 258.257 130.237 258.516 131.787H272.082C271.404 130.043 271.081 127.943 271.081 125.456V110.016V110.048Z" fill="#CCFF00"/>
<path d="M11.6067 178.203C13.7063 178.203 15.3536 177.331 16.4196 176.007L14.643 174.392C14.0616 175.07 13.0603 175.684 11.7682 175.684C9.92707 175.684 8.53812 174.36 8.53812 172.389C8.53812 170.419 9.86247 169.191 11.639 169.191C12.8342 169.191 13.7063 169.74 14.3523 170.419L16.1935 168.739C15.1598 167.479 13.6094 166.672 11.5421 166.672C7.9244 166.672 5.66333 169.094 5.66333 172.389C5.66333 175.878 8.15051 178.203 11.5744 178.203H11.6067ZM53.2105 177.977H56.053L56.8282 176.104H61.7057L62.4809 177.977H65.3557L60.5751 166.93H57.991L53.2105 177.977ZM59.2508 170.16L60.7366 173.778H57.7649L59.2508 170.16ZM102.986 177.977H105.764V175.135H107.67C111.385 175.135 112.58 173.067 112.58 170.903C112.58 168.965 111.643 166.93 107.896 166.93H102.986V177.977ZM105.764 172.551V169.514H107.832C109.188 169.514 109.737 170.096 109.737 171C109.737 172.002 109.091 172.551 107.864 172.551H105.797H105.764ZM153.376 177.977H156.154V169.514H159.513V166.93H149.984V169.514H153.344V177.977H153.376ZM202.764 178.203C204.864 178.203 206.511 177.331 207.577 176.007L205.801 174.392C205.219 175.07 204.218 175.684 202.926 175.684C201.085 175.684 199.696 174.36 199.696 172.389C199.696 170.419 201.02 169.191 202.797 169.191C203.992 169.191 204.864 169.74 205.51 170.419L207.351 168.739C206.317 167.479 204.767 166.672 202.7 166.672C199.082 166.672 196.821 169.094 196.821 172.389C196.821 175.878 199.308 178.203 202.732 178.203H202.764ZM245.531 177.977H248.309V173.714H252.896V177.977H255.673V166.93H252.896V171.129H248.309V166.93H245.531V177.977ZM293.304 177.977H296.147L296.922 176.104H301.799L302.575 177.977H305.449L300.669 166.93H298.085L293.304 177.977ZM299.344 170.16L300.83 173.778H297.859L299.344 170.16Z" fill="#FEFEFE"/>
<path d="M215.168 143.964H208.708V152.427H215.168V143.964Z" fill="#CCFF00"/>
</svg>
