<svg width="120" height="31" viewBox="0 0 120 31" fill="none" xmlns="http://www.w3.org/2000/svg">
<path fill-rule="evenodd" clip-rule="evenodd" d="M0.768516 0H24.0538V15.5001H16.292V23.2501H0.768311V0H0.768516ZM8.53026 7.75003H16.292V15.5001H8.53026V7.75003Z" fill="#EFEFEF"/>
<path d="M55.0778 12.1351H51.1068V12.0952C53.0521 11.2342 53.9346 9.27176 53.9346 7.26915C53.9346 3.00371 50.5654 0 46.3537 0C42.1419 0 38.7727 2.98363 38.7727 7.26915C38.7727 11.835 42.0416 14.5383 46.4739 14.5383H55.0776V12.1351H55.0778ZM42.0219 7.26915C42.0219 4.82623 43.9672 2.88365 46.3539 2.88365C48.7404 2.88365 50.6857 4.82623 50.6857 7.26915C50.6857 9.71207 48.7404 11.6547 46.3539 11.6547C43.9672 11.6547 42.0219 9.71228 42.0219 7.26915Z" fill="#EFEFEF"/>
<path d="M75.9038 0.360596H72.7753V8.9513C72.7753 10.6933 71.572 12.015 69.9273 12.015C68.2627 12.015 67.0594 10.6933 67.0594 8.9513V0.360596H63.9307V9.07157C63.9307 12.4158 65.9763 14.8987 69.9273 14.8987C73.8581 14.8987 75.9038 12.4156 75.9038 9.07157V0.360596Z" fill="#EFEFEF"/>
<path d="M86.425 14.5383H96.4327V11.6544H89.5538V8.75091H95.7106V5.86747H89.5538V3.24404H96.0718V0.360596H86.425V14.5383Z" fill="#EFEFEF"/>
<path d="M105.52 14.5383H109.23L112.6 8.83103L116.069 14.5383H120L114.866 7.06896L119.458 0.360596H115.668L112.76 5.32676L109.732 0.360596H105.801L110.494 7.12899L105.52 14.5383Z" fill="#EFEFEF"/>
<path fill-rule="evenodd" clip-rule="evenodd" d="M31.8157 31H24.054V23.25H31.8157V31Z" fill="#EFEFEF"/>
</svg>
