<svg width="347" height="326" viewBox="0 0 347 326" fill="none" xmlns="http://www.w3.org/2000/svg">
<g clip-path="url(#clip0_55_338)">
<path d="M15.5991 130.08C15.3568 130.08 15.1145 129.837 15.1145 129.595C15.1145 129.353 15.3568 129.114 15.5991 129.114C15.8414 129.114 16.0802 129.356 16.0802 129.595C16.0802 129.834 15.8379 130.08 15.5991 130.08ZM15.5991 127.023C14.2302 127.023 13.1072 128.151 13.1072 129.517C13.1072 130.883 14.232 132.011 15.5991 132.011C16.9663 132.011 18.0893 130.883 18.0893 129.517C18.0893 128.151 16.9645 127.023 15.5991 127.023Z" fill="#CCFF00"/>
<path d="M45.2674 120.986H26.1311V108.92H45.2674V120.986ZM26.1311 139.088H22.1111V111.976C22.1111 111.573 21.8688 111.171 21.4691 111.01L6.19188 104.895H26.1329V106.906H25.0876C24.5252 106.906 24.0442 107.391 24.0442 107.952V122.031C24.0442 122.595 24.5252 123.077 25.0876 123.077H26.1329V139.086L26.1311 139.088ZM20.1019 146.652L2.01267 139.41V105.377L20.1019 112.619V146.652ZM46.2331 106.906H28.1438V103.929C28.1438 103.366 27.6592 102.883 27.0985 102.883C-0.318349 102.883 0.967426 102.883 0.887839 102.883C0.726896 102.883 0.565953 102.966 0.403242 103.044C0.403242 103.044 0.325423 103.126 0.244067 103.205C0.0813558 103.368 0 103.61 0 103.849V140.054C0 140.458 0.242299 140.862 0.642003 141.021L20.7439 149.066C21.386 149.309 22.1093 148.824 22.1093 148.1V141.1H27.1764C27.7388 141.1 28.2198 140.619 28.2198 140.054V122.999H46.3126C46.8751 122.999 47.3561 122.517 47.3561 121.953V107.954C47.2748 107.391 46.7937 106.908 46.2313 106.908L46.2331 106.906Z" fill="#CCFF00"/>
<path d="M45.2675 138.126H31.1982V128.069H45.2675V138.126ZM46.2331 126.057H30.1512C29.5888 126.057 29.106 126.539 29.106 127.023V139.09C29.106 139.655 29.5906 140.136 30.1512 140.136H46.2331C46.7955 140.136 47.2766 139.655 47.2766 139.09V127.023C47.2766 126.459 46.7955 126.057 46.2331 126.057Z" fill="#CCFF00"/>
<path d="M31.1963 113.987H38.1911V115.999H31.1963V113.987Z" fill="#CCFF00"/>
<path d="M28.1421 110.93H40.2004V112.943H28.1421V110.93Z" fill="#CCFF00"/>
<path d="M41.2456 110.93H43.2583V112.943H41.2456V110.93Z" fill="#CCFF00"/>
<path d="M28.1421 116.966H43.2583V118.976H28.1421V116.966Z" fill="#CCFF00"/>
<path d="M40.5222 135.793C40.9236 136.194 41.5656 136.194 41.9689 135.793L43.978 133.78C44.3813 133.379 44.3813 132.736 43.978 132.333L41.9689 130.322C41.5656 129.919 40.9236 129.919 40.5222 130.322C40.1189 130.724 40.1189 131.366 40.5222 131.77L41.8079 133.057L40.5222 134.345C40.1189 134.747 40.1189 135.389 40.5222 135.793Z" fill="#CCFF00"/>
<path d="M34.4913 135.793C34.8945 136.194 35.5365 136.194 35.9397 135.793C36.3412 135.389 36.3412 134.747 35.9397 134.345L34.6522 133.057L35.9397 131.77C36.3412 131.366 36.3412 130.724 35.9397 130.322C35.5365 129.919 34.8945 129.919 34.4913 130.322L32.4821 132.333C32.0789 132.736 32.0789 133.379 32.4821 133.78L34.4913 135.793Z" fill="#CCFF00"/>
<path d="M37.4678 136.193C37.8693 136.193 38.2725 135.95 38.4299 135.469L39.8784 131.205C40.0393 130.641 39.797 130.078 39.2364 129.917C38.6722 129.756 38.1098 129.998 37.9489 130.56L36.5021 134.825C36.3412 135.549 36.824 136.191 37.4678 136.191V136.193Z" fill="#CCFF00"/>
<path d="M4.65858 93.6676H5.95851L7.4742 88.905H7.49366L9.00935 93.6676H10.357L12.3679 86.7866H10.8328L9.67788 91.3173H9.65843L8.22939 86.7866H6.82336L5.38725 91.2005H5.36779L4.26949 86.7866H2.61938L4.66035 93.6676H4.65858ZM15.4665 93.6676H16.8071V91.266C16.8071 89.6926 16.3508 88.8272 14.6494 88.8272C13.8836 88.8272 13.1072 89.082 12.5731 89.5864L13.3495 90.3828C13.659 90.0324 14.0569 89.8183 14.5345 89.8183C15.0385 89.8183 15.4665 90.1492 15.4665 90.666C14.2515 90.666 12.2707 90.6943 12.2707 92.3261C12.2707 93.28 13.0665 93.7844 13.9526 93.7844C14.5451 93.7844 15.1269 93.5827 15.4471 93.0765H15.4665V93.6694V93.6676ZM15.4665 91.5969V91.9102C15.4665 92.4925 14.9324 92.7933 14.3594 92.7933C14.0393 92.7933 13.6696 92.6287 13.6696 92.2783C13.6696 91.6376 14.66 91.5969 15.1057 91.5969H15.4665ZM17.7409 93.6676H19.1983V86.3193H17.7409V93.6676ZM20.2647 93.6676H21.7221V86.3193H20.2647V93.6676ZM26.2179 92.1031C25.9756 92.434 25.6554 92.6765 25.1797 92.6765C24.6155 92.6765 24.1999 92.319 24.0832 91.7633H27.4612V91.3067C27.4612 89.8006 26.607 88.8272 25.2487 88.8272C23.7913 88.8272 22.6276 89.8006 22.6276 91.3067C22.6276 92.8128 23.7913 93.7844 25.2487 93.7844C26.0056 93.7844 26.7732 93.4464 27.2401 92.8517L26.2196 92.1049L26.2179 92.1031ZM24.0832 90.7722C24.1203 90.3156 24.4705 89.8767 25.1107 89.8767C25.6342 89.8767 26.0127 90.2855 26.0039 90.7722H24.0832ZM31.559 88.9457H30.2786V87.5458H28.8212V88.9457H27.8892V90.1103H28.8212V92.3544C28.8212 93.3827 29.5694 93.7827 30.5403 93.7827C30.8799 93.7827 31.2389 93.7543 31.559 93.6393V92.4234C31.4335 92.5402 31.1222 92.5597 30.9666 92.5597C30.3369 92.5597 30.2786 92.1898 30.2786 91.6836V90.1103H31.559V88.9457Z" fill="#EBECEC"/>
<path d="M53.9124 123.39V122.514L58.0333 119.84L58.601 120.716L54.4801 123.39V122.514L53.9124 123.39ZM53.9124 123.39L53.2368 122.951L53.9124 122.514V123.39ZM58.3162 125.627L58.0333 126.066L53.9124 123.39L54.4801 122.514L58.601 125.188L58.3162 125.627ZM55.0072 123.475C54.7207 123.475 54.4855 123.239 54.4855 122.951C54.4855 122.662 54.7207 122.429 55.0072 122.429V123.475ZM94.9723 123.475H55.0072V122.429H94.9723V123.475ZM96.0671 123.39L95.4976 122.514V123.39L91.3785 120.716L91.9462 119.84L96.0671 122.514V123.39ZM96.0671 123.39V122.514L96.7427 122.951L96.0671 123.39ZM91.6615 125.627L91.3767 125.188L95.4976 122.514L96.0671 123.39L91.9462 126.066L91.6615 125.627ZM94.9741 122.429C95.2606 122.429 95.4958 122.664 95.4958 122.951C95.4958 123.238 95.2606 123.475 94.9741 123.475V122.429Z" fill="#EBECEC"/>
<path d="M142.335 138.037H104.708C103.423 138.037 102.377 136.991 102.377 135.704V134.98H144.587V135.704C144.668 136.991 143.621 138.037 142.335 138.037ZM126.899 144.07H120.065L122.074 140.047H124.886L126.897 144.07H126.899ZM133.57 147.127C133.57 147.689 133.089 148.093 132.604 148.093H114.517C113.953 148.093 113.472 147.608 113.472 147.127C113.472 146.562 113.953 146.081 114.517 146.081H132.604C133.089 146.081 133.57 146.562 133.57 147.127ZM104.707 108.909H112.425V127.011H111.381C110.817 127.011 110.336 127.496 110.336 128.057C110.336 128.618 110.817 129.103 111.381 129.103H135.5C136.062 129.103 136.545 128.621 136.545 128.057C136.545 127.492 136.06 127.011 135.5 127.011H134.454V108.909H142.173C143.46 108.909 144.504 109.955 144.504 111.242V133.048H102.455V111.164C102.455 109.875 103.421 108.909 104.707 108.909ZM114.517 105.771C114.517 104.727 115.4 103.842 116.445 103.842H130.675C131.72 103.842 132.603 104.727 132.603 105.771V127.011H114.515V105.771H114.517ZM142.334 106.899H134.615V105.771C134.615 103.6 132.847 101.828 130.675 101.828H116.363C114.193 101.828 112.423 103.598 112.423 105.771V106.899H104.705C102.292 106.899 100.361 108.828 100.361 111.242V135.78C100.361 138.194 102.292 140.127 104.705 140.127H119.901L117.89 144.15H114.515C112.824 144.15 111.461 145.516 111.461 147.206C111.461 148.896 112.824 150.183 114.515 150.183H132.603C134.292 150.183 135.579 148.817 135.579 147.206C135.579 145.516 134.214 144.15 132.603 144.15H129.228L127.14 140.046H142.334C144.746 140.046 146.677 138.113 146.677 135.702V111.164C146.596 108.828 144.666 106.899 142.334 106.899Z" fill="#CCFF00"/>
<path d="M104.468 114.942H108.488V116.956H104.468V114.942Z" fill="#CCFF00"/>
<path d="M104.468 117.921H108.488V119.932H104.468V117.921Z" fill="#CCFF00"/>
<path d="M104.468 120.979H110.499V122.992H104.468V120.979Z" fill="#CCFF00"/>
<path d="M116.528 104.886H118.537V106.899H116.528V104.886Z" fill="#CCFF00"/>
<path d="M119.503 104.886H121.514V106.899H119.503V104.886Z" fill="#CCFF00"/>
<path d="M130.597 107.865H116.528C115.964 107.865 115.483 108.346 115.483 108.828C115.483 109.392 115.964 109.874 116.528 109.874H130.597C131.161 109.874 131.642 109.392 131.642 108.828C131.561 108.346 131.078 107.865 130.597 107.865Z" fill="#CCFF00"/>
<path d="M120.548 114.942H117.494V112.932H120.468V114.942H120.55H120.548ZM121.514 110.921H116.528C115.964 110.921 115.483 111.403 115.483 111.884V115.907C115.483 116.472 115.964 116.953 116.528 116.953H121.514C122.076 116.953 122.476 116.472 122.476 115.907V111.884C122.476 111.321 122.074 110.921 121.514 110.921Z" fill="#CCFF00"/>
<path d="M129.552 114.942H126.497V112.932H129.552V114.942ZM130.597 110.921H125.53C124.968 110.921 124.487 111.403 124.487 111.884V115.907C124.487 116.472 124.968 116.953 125.53 116.953H130.597C131.161 116.953 131.642 116.472 131.642 115.907V111.884C131.561 111.321 131.078 110.921 130.597 110.921Z" fill="#CCFF00"/>
<path d="M120.548 121.946H117.494V119.933H120.468V121.946H120.55H120.548ZM121.514 117.923H116.528C115.964 117.923 115.483 118.404 115.483 118.967V122.993C115.483 123.556 115.964 123.956 116.528 123.956H121.514C122.076 123.956 122.476 123.475 122.476 122.993V118.967C122.476 118.404 122.074 117.923 121.514 117.923Z" fill="#CCFF00"/>
<path d="M129.552 121.946H126.497V119.933H129.552V121.946ZM130.597 117.923H125.53C124.968 117.923 124.487 118.404 124.487 118.967V122.993C124.487 123.556 124.968 123.956 125.53 123.956H130.597C131.161 123.956 131.642 123.475 131.642 122.993V118.967C131.561 118.404 131.078 117.923 130.597 117.923Z" fill="#CCFF00"/>
<path d="M103.573 93.6676H105.089V90.9863H107.952V89.5864H105.089V88.1865H108.187V86.7866H103.575V93.6676H103.573ZM108.914 91.3067C108.914 92.8128 110.078 93.7844 111.535 93.7844C112.993 93.7844 114.156 92.8128 114.156 91.3067C114.156 89.8006 112.993 88.8272 111.535 88.8272C110.078 88.8272 108.914 89.8006 108.914 91.3067ZM110.372 91.3067C110.372 90.5987 110.808 90.1103 111.535 90.1103C112.262 90.1103 112.703 90.597 112.703 91.3067C112.703 92.0164 112.264 92.5031 111.535 92.5031C110.807 92.5031 110.372 92.0164 110.372 91.3067ZM115.014 93.6676H116.468V91.3173C116.468 90.7049 116.586 90.112 117.343 90.112C118.1 90.112 118.102 90.8111 118.102 91.3562V93.6694H119.559V91.066C119.559 89.8023 119.287 88.8289 117.81 88.8289C117.103 88.8289 116.625 89.2165 116.431 89.5882H116.411V88.9475H115.014V93.6694V93.6676ZM123.804 88.9457H122.522V87.5458H121.064V88.9457H120.132V90.1103H121.064V92.3544C121.064 93.3827 121.813 93.7827 122.784 93.7827C123.123 93.7827 123.482 93.7543 123.804 93.6393V92.4234C123.675 92.5402 123.365 92.5597 123.212 92.5597C122.578 92.5597 122.522 92.1898 122.522 91.6836V90.1103H123.804V88.9457ZM126.657 90.666H124.267V91.8305H126.657V90.666ZM130.864 92.1031C130.62 92.434 130.3 92.6765 129.823 92.6765C129.26 92.6765 128.843 92.319 128.726 91.7633H132.106V91.3067C132.106 89.8006 131.252 88.8272 129.89 88.8272C128.432 88.8272 127.269 89.8006 127.269 91.3067C127.269 92.8128 128.432 93.7844 129.89 93.7844C130.649 93.7844 131.414 93.4464 131.881 92.8517L130.863 92.1049L130.864 92.1031ZM128.726 90.7722C128.763 90.3156 129.113 89.8767 129.754 89.8767C130.281 89.8767 130.659 90.2855 130.649 90.7722H128.726ZM132.99 93.6676H134.444V91.3173C134.444 90.7049 134.562 90.112 135.319 90.112C136.076 90.112 136.078 90.8111 136.078 91.3562V93.6694H137.535V91.066C137.535 89.8023 137.263 88.8289 135.786 88.8289C135.079 88.8289 134.601 89.2165 134.407 89.5882H134.387V88.9475H132.99V93.6694V93.6676ZM143.517 86.3193H142.06V89.4501H142.042C141.711 88.9935 141.147 88.8272 140.544 88.8272C139.203 88.8272 138.388 90.0324 138.388 91.3438C138.388 92.7739 139.311 93.7827 140.71 93.7827C141.37 93.7827 141.932 93.3844 142.157 93.0464H142.176V93.6676H143.515V86.3193H143.517ZM142.178 91.3067C142.178 92.0146 141.739 92.5031 141.011 92.5031C140.282 92.5031 139.847 92.0164 139.847 91.3067C139.847 90.597 140.284 90.1103 141.011 90.1103C141.738 90.1103 142.178 90.597 142.178 91.3067Z" fill="#EBECEC"/>
<path d="M99.4309 171.423H346.478V306.81H99.4309V171.423Z" stroke="#727271" stroke-miterlimit="32.67" stroke-dasharray="2 2"/>
<path d="M175.265 215.526H141.094V209.493H175.265V215.526ZM171.245 218.505H169.236V217.459H171.245V218.505ZM175.265 226.549H141.094V220.515H175.265V226.549ZM171.245 229.605H169.236V228.561H171.245V229.605ZM175.265 237.651H141.094V231.618H175.265V237.651ZM171.245 240.629H169.236V239.663H171.245V240.629ZM175.265 248.673H141.094V242.64H175.265V248.673ZM171.245 251.73H169.236V250.686H171.245V251.73ZM147.127 251.73H145.116V250.686H147.127V251.73ZM167.225 239.663V240.629H149.136V239.663H167.225ZM145.114 239.663H147.125V240.629H145.114V239.663ZM167.225 228.559V229.603H149.136V228.559H167.225ZM145.114 228.559H147.125V229.603H145.114V228.559ZM167.225 217.537V218.583H149.136V217.537H167.225ZM145.114 217.537H147.125V218.583H145.114V217.537ZM176.231 207.481H140.05C139.486 207.481 139.005 207.962 139.005 208.525V216.571C139.005 217.133 139.486 217.617 140.05 217.617H143.025V218.662H140.05C139.486 218.662 139.005 219.144 139.005 219.707V227.752C139.005 228.315 139.486 228.719 140.05 228.719H143.025V229.763H140.05C139.486 229.763 139.005 230.248 139.005 230.809V238.854C139.005 239.417 139.486 239.9 140.05 239.9H143.025V240.624H140.05C139.486 240.624 139.005 241.106 139.005 241.668V249.714C139.005 250.277 139.486 250.76 140.05 250.76H143.025V252.689C143.025 253.254 143.506 253.735 143.991 253.735H148.011C148.573 253.735 149.054 253.254 149.054 252.689V250.678H167.144V252.689C167.144 253.254 167.628 253.735 168.109 253.735H172.129C172.692 253.735 173.175 253.254 173.175 252.689V250.678H176.229C176.791 250.678 177.274 250.197 177.274 249.632V241.587C177.274 241.024 176.79 240.543 176.229 240.543H173.175V239.576H176.229C176.791 239.576 177.274 239.091 177.274 238.53V230.487C177.274 229.922 176.79 229.441 176.229 229.441H173.175V228.556H176.229C176.791 228.556 177.274 228.074 177.274 227.589V219.544C177.274 218.981 176.79 218.5 176.229 218.5H173.175V217.454H176.229C176.791 217.454 177.274 216.972 177.274 216.408V208.442C177.274 207.879 176.79 207.479 176.229 207.479L176.231 207.481Z" fill="#CCFF00"/>
<path d="M143.023 211.505H145.033V213.516H143.023V211.505Z" fill="#CCFF00"/>
<path d="M171.243 211.505H173.253V213.516H171.243V211.505Z" fill="#CCFF00"/>
<path d="M168.189 211.505H170.198V213.516H168.189V211.505Z" fill="#CCFF00"/>
<path d="M165.214 211.505H167.223V213.516H165.214V211.505Z" fill="#CCFF00"/>
<path d="M162.16 211.505H164.169V213.516H162.16V211.505Z" fill="#CCFF00"/>
<path d="M143.023 222.528H145.033V224.538H143.023V222.528Z" fill="#CCFF00"/>
<path d="M171.243 222.528H173.253V224.538H171.243V222.528Z" fill="#CCFF00"/>
<path d="M168.189 222.528H170.198V224.538H168.189V222.528Z" fill="#CCFF00"/>
<path d="M165.214 222.528H167.223V224.538H165.214V222.528Z" fill="#CCFF00"/>
<path d="M162.16 222.528H164.169V224.538H162.16V222.528Z" fill="#CCFF00"/>
<path d="M143.023 233.632H145.033V235.642H143.023V233.632Z" fill="#CCFF00"/>
<path d="M171.243 233.632H173.253V235.642H171.243V233.632Z" fill="#CCFF00"/>
<path d="M168.189 233.632H170.198V235.642H168.189V233.632Z" fill="#CCFF00"/>
<path d="M165.214 233.632H167.223V235.642H165.214V233.632Z" fill="#CCFF00"/>
<path d="M162.16 233.632H164.169V235.642H162.16V233.632Z" fill="#CCFF00"/>
<path d="M179.285 248.675C178.723 248.675 178.24 249.16 178.24 249.721C178.24 250.282 178.725 250.767 179.285 250.767C179.846 250.767 180.33 250.282 180.33 249.721C180.247 249.158 179.766 248.675 179.285 248.675Z" fill="#CCFF00"/>
<path d="M137.076 220.515C136.512 220.515 136.031 221 136.031 221.561C136.031 222.122 136.512 222.606 137.076 222.606C137.64 222.606 138.119 222.124 138.119 221.561C138.119 220.999 137.557 220.515 137.076 220.515Z" fill="#CCFF00"/>
<path d="M180.247 214.482C179.685 214.482 179.204 214.964 179.204 215.526C179.204 216.089 179.685 216.493 180.247 216.493C180.81 216.493 181.213 216.011 181.213 215.526C181.213 214.964 180.812 214.482 180.247 214.482Z" fill="#CCFF00"/>
<path d="M136.029 239.665C135.464 239.665 134.983 240.146 134.983 240.631C134.983 241.194 135.464 241.675 136.029 241.675C136.593 241.675 137.074 241.194 137.074 240.631C137.074 240.068 136.589 239.665 136.029 239.665Z" fill="#CCFF00"/>
<path d="M179.285 228.561C178.723 228.561 178.24 229.042 178.24 229.605C178.24 230.168 178.725 230.651 179.285 230.651C179.846 230.651 180.33 230.17 180.33 229.605C180.247 229.042 179.766 228.561 179.285 228.561Z" fill="#CCFF00"/>
<path d="M143.023 244.652H145.033V246.664H143.023V244.652Z" fill="#CCFF00"/>
<path d="M171.243 244.652H173.253V246.664H171.243V244.652Z" fill="#CCFF00"/>
<path d="M168.189 244.652H170.198V246.664H168.189V244.652Z" fill="#CCFF00"/>
<path d="M165.214 244.652H167.223V246.664H165.214V244.652Z" fill="#CCFF00"/>
<path d="M162.16 244.652H164.169V246.664H162.16V244.652Z" fill="#CCFF00"/>
<path d="M182.578 317.684C181.993 316.937 181.024 316.675 180.256 316.675C178.109 316.675 176.545 318.082 176.545 320.289C176.545 322.496 178.109 323.903 180.256 323.903C181.197 323.903 182.17 323.524 182.741 322.706L181.478 321.765C181.169 322.232 180.672 322.501 180.061 322.501C178.963 322.501 178.118 321.57 178.118 320.287C178.118 319.004 178.961 318.069 180.109 318.069C180.672 318.069 181.11 318.273 181.409 318.634L182.576 317.68L182.578 317.684ZM186.347 323.729H187.686V321.328C187.686 319.754 187.23 318.889 185.53 318.889C184.764 318.889 183.984 319.142 183.45 319.648L184.228 320.445C184.538 320.094 184.936 319.88 185.413 319.88C185.917 319.88 186.345 320.211 186.345 320.724C185.13 320.724 183.149 320.754 183.149 322.386C183.149 323.34 183.945 323.844 184.831 323.844C185.424 323.844 186.006 323.641 186.326 323.136H186.345V323.729H186.347ZM186.347 321.659V321.972C186.347 322.554 185.813 322.855 185.238 322.855C184.918 322.855 184.55 322.69 184.55 322.34C184.55 321.699 185.541 321.659 185.986 321.659H186.347ZM188.735 325.943H190.192V323.225H190.211C190.542 323.682 191.106 323.846 191.706 323.846C193.046 323.846 193.864 322.641 193.864 321.33C193.864 319.901 192.94 318.891 191.541 318.891C190.882 318.891 190.316 319.289 190.095 319.63H190.075V319.008H188.735V325.947V325.943ZM190.075 321.368C190.075 320.657 190.512 320.172 191.242 320.172C191.973 320.172 192.406 320.657 192.406 321.368C192.406 322.08 191.968 322.565 191.242 322.565C190.517 322.565 190.075 322.078 190.075 321.368ZM197.931 319.006H196.651V317.606H195.194V319.006H194.262V320.174H195.194V322.418C195.194 323.446 195.94 323.846 196.913 323.846C197.252 323.846 197.611 323.818 197.931 323.699V322.485C197.806 322.602 197.495 322.621 197.339 322.621C196.709 322.621 196.651 322.252 196.651 321.745V320.172H197.931V319.004V319.006ZM202.827 319.523C202.371 319.055 201.7 318.889 201.148 318.889C199.691 318.889 198.524 319.861 198.524 321.368C198.524 322.876 199.691 323.846 201.148 323.846C201.7 323.846 202.371 323.682 202.827 323.216L201.867 322.206C201.7 322.4 201.469 322.567 201.148 322.567C200.42 322.567 199.981 322.08 199.981 321.37C199.981 320.661 200.42 320.174 201.148 320.174C201.449 320.174 201.721 320.328 201.867 320.531L202.827 319.523ZM203.35 316.383V323.731H204.808V321.377C204.808 320.767 204.924 320.174 205.683 320.174C206.442 320.174 206.442 320.873 206.442 321.418V323.731H207.896V321.126C207.896 319.862 207.627 318.891 206.148 318.891C205.441 318.891 204.963 319.278 204.827 319.65H204.808V316.383H203.35ZM211.887 323.729H213.228V321.328C213.228 319.754 212.772 318.889 211.07 318.889C210.305 318.889 209.528 319.142 208.994 319.648L209.77 320.445C210.08 320.094 210.478 319.88 210.955 319.88C211.461 319.88 211.887 320.211 211.887 320.724C210.672 320.724 208.692 320.754 208.692 322.386C208.692 323.34 209.487 323.844 210.373 323.844C210.966 323.844 211.548 323.641 211.868 323.136H211.887V323.729ZM211.887 321.659V321.972C211.887 322.554 211.353 322.855 210.78 322.855C210.46 322.855 210.091 322.69 210.091 322.34C210.091 321.699 211.081 321.659 211.53 321.659H211.887ZM216.831 320.289C216.831 322.496 218.396 323.903 220.541 323.903C222.687 323.903 224.252 322.496 224.252 320.289C224.252 318.082 222.688 316.675 220.541 316.675C218.394 316.675 216.831 318.082 216.831 320.289ZM218.403 320.289C218.403 319.006 219.25 318.071 220.541 318.071C221.832 318.071 222.679 319.004 222.679 320.289C222.679 321.574 221.836 322.503 220.541 322.503C219.247 322.503 218.403 321.572 218.403 320.289ZM225.095 323.729H226.553V321.758C226.553 320.814 226.689 320.174 227.796 320.174C228.01 320.174 228.215 320.211 228.419 320.269V318.938C228.282 318.901 228.098 318.891 227.932 318.891C227.292 318.891 226.883 319.193 226.574 319.767H226.554V319.008H225.097V323.731L225.095 323.729ZM232.012 323.729H233.351V321.328C233.351 319.754 232.895 318.889 231.195 318.889C230.429 318.889 229.649 319.142 229.115 319.648L229.894 320.445C230.203 320.094 230.601 319.88 231.079 319.88C231.583 319.88 232.011 320.211 232.011 320.724C230.796 320.724 228.815 320.754 228.815 322.386C228.815 323.34 229.611 323.844 230.497 323.844C231.089 323.844 231.671 323.641 231.991 323.136H232.011V323.729H232.012ZM232.012 321.659V321.972C232.012 322.554 231.478 322.855 230.903 322.855C230.583 322.855 230.215 322.69 230.215 322.34C230.215 321.699 231.206 321.659 231.652 321.659H232.012ZM238.422 319.523C237.964 319.055 237.295 318.889 236.74 318.889C235.282 318.889 234.119 319.861 234.119 321.368C234.119 322.876 235.282 323.846 236.74 323.846C237.295 323.846 237.962 323.682 238.422 323.216L237.46 322.206C237.295 322.4 237.062 322.567 236.742 322.567C236.013 322.567 235.578 322.08 235.578 321.37C235.578 320.661 236.015 320.174 236.742 320.174C237.042 320.174 237.315 320.328 237.46 320.531L238.422 319.523ZM238.963 323.729H240.42V316.381H238.963V323.729ZM244.916 322.165C244.674 322.496 244.354 322.738 243.878 322.738C243.314 322.738 242.898 322.377 242.781 321.825H246.159V321.368C246.159 319.861 245.305 318.889 243.947 318.889C242.49 318.889 241.326 319.861 241.326 321.368C241.326 322.876 242.49 323.846 243.947 323.846C244.704 323.846 245.471 323.506 245.938 322.913L244.918 322.167L244.916 322.165ZM242.781 320.834C242.819 320.377 243.169 319.938 243.809 319.938C244.332 319.938 244.711 320.347 244.702 320.834H242.781ZM250.054 325.943H251.511V323.225H251.531C251.861 323.682 252.426 323.846 253.025 323.846C254.366 323.846 255.183 322.641 255.183 321.33C255.183 319.901 254.26 318.891 252.861 318.891C252.201 318.891 251.639 319.289 251.414 319.63H251.394V319.008H250.054V325.947V325.943ZM251.394 321.368C251.394 320.657 251.833 320.172 252.562 320.172C253.29 320.172 253.725 320.657 253.725 321.368C253.725 322.08 253.287 322.565 252.562 322.565C251.837 322.565 251.394 322.078 251.394 321.368ZM255.864 321.368C255.864 322.875 257.027 323.846 258.485 323.846C259.942 323.846 261.106 322.875 261.106 321.368C261.106 319.862 259.942 318.889 258.485 318.889C257.027 318.889 255.864 319.861 255.864 321.368ZM257.321 321.368C257.321 320.657 257.758 320.172 258.485 320.172C259.212 320.172 259.649 320.657 259.649 321.368C259.649 322.08 259.212 322.565 258.485 322.565C257.758 322.565 257.321 322.078 257.321 321.368ZM261.787 321.368C261.787 322.875 262.951 323.846 264.408 323.846C265.865 323.846 267.032 322.875 267.032 321.368C267.032 319.862 265.865 318.889 264.408 318.889C262.951 318.889 261.787 319.861 261.787 321.368ZM263.244 321.368C263.244 320.657 263.681 320.172 264.408 320.172C265.135 320.172 265.575 320.657 265.575 321.368C265.575 322.08 265.137 322.565 264.408 322.565C263.679 322.565 263.244 322.078 263.244 321.368ZM267.904 323.729H269.362V316.381H267.904V323.729Z" fill="#EBECEC"/>
<path d="M114.1 185.466H204.732V289.515H114.1V185.466Z" stroke="#727271" stroke-miterlimit="32.67" stroke-dasharray="2 2"/>
<path d="M141.51 198.711H139.587V198.692C140.53 198.272 140.956 197.322 140.956 196.349C140.956 194.28 139.325 192.823 137.286 192.823C135.247 192.823 133.615 194.271 133.615 196.349C133.615 198.566 135.197 199.878 137.344 199.878H141.511V198.713L141.51 198.711ZM135.185 196.349C135.185 195.163 136.128 194.223 137.284 194.223C138.441 194.223 139.382 195.165 139.382 196.349C139.382 197.533 138.439 198.478 137.284 198.478C136.129 198.478 135.185 197.534 135.185 196.349ZM148.055 192.997H146.538V197.166C146.538 198.01 145.956 198.655 145.158 198.655C144.361 198.655 143.77 198.012 143.77 197.166V192.997H142.254V197.225C142.254 198.849 143.245 200.053 145.158 200.053C147.072 200.053 148.055 198.849 148.055 197.225V192.997ZM149.512 199.878H154.357V198.478H151.026V197.071H154.007V195.671H151.026V194.397H154.182V192.997H149.511V199.878H149.512ZM154.871 199.878H156.668L158.302 197.108L159.981 199.878H161.884L159.399 196.253L161.622 192.997H159.786L158.377 195.407L156.912 192.997H155.008L157.282 196.281L154.873 199.878H154.871ZM165.294 199.878H166.751V195.154H165.294V199.878ZM165.175 193.667C165.175 194.135 165.555 194.512 166.022 194.512C166.489 194.512 166.866 194.133 166.866 193.667C166.866 193.202 166.488 192.823 166.022 192.823C165.557 192.823 165.175 193.202 165.175 193.667ZM167.8 199.878H169.257V197.527C169.257 196.915 169.374 196.322 170.133 196.322C170.891 196.322 170.89 197.021 170.89 197.566V199.879H172.347V197.274C172.347 196.012 172.075 195.039 170.598 195.039C169.89 195.039 169.413 195.427 169.218 195.798H169.201V195.156H167.802V199.879L167.8 199.878ZM173.88 199.878H175.338V196.322H176.415V195.154H175.338V194.407C175.338 193.784 175.569 193.637 176.036 193.637C176.213 193.637 176.349 193.678 176.512 193.736L176.579 192.503C176.307 192.436 176.015 192.414 175.725 192.414C174.142 192.414 173.88 193.29 173.88 194.319V195.154H172.918V196.322H173.88V199.878ZM176.968 199.878H178.426V197.906C178.426 196.963 178.562 196.322 179.669 196.322C179.883 196.322 180.088 196.359 180.291 196.418V195.087C180.155 195.05 179.971 195.039 179.805 195.039C179.165 195.039 178.756 195.342 178.447 195.915H178.427V195.156H176.97V199.879L176.968 199.878ZM183.882 199.878H185.222V197.476C185.222 195.903 184.766 195.037 183.066 195.037C182.297 195.037 181.521 195.29 180.987 195.796L181.765 196.593C182.074 196.242 182.472 196.028 182.95 196.028C183.454 196.028 183.88 196.359 183.88 196.872C182.667 196.872 180.686 196.903 180.686 198.534C180.686 199.488 181.482 199.993 182.364 199.993C182.957 199.993 183.542 199.789 183.862 199.285H183.88V199.878H183.882ZM183.882 197.807V198.12C183.882 198.702 183.349 199.003 182.775 199.003C182.454 199.003 182.087 198.839 182.087 198.488C182.087 197.848 183.077 197.807 183.523 197.807H183.88H183.882Z" fill="#EBECEC"/>
<path d="M146.065 267.7H144.143V267.683C145.086 267.263 145.512 266.311 145.512 265.34C145.512 263.269 143.881 261.811 141.842 261.811C139.803 261.811 138.17 263.26 138.17 265.34C138.17 267.557 139.753 268.869 141.9 268.869H146.067V267.7H146.065ZM139.741 265.34C139.741 264.154 140.684 263.21 141.84 263.21C142.997 263.21 143.938 264.154 143.938 265.34C143.938 266.525 142.995 267.469 141.84 267.469C140.685 267.469 139.741 266.525 139.741 265.34ZM152.611 261.988H151.095V266.157C151.095 267.001 150.51 267.642 149.714 267.642C148.918 267.642 148.327 267.001 148.327 266.157V261.988H146.81V266.216C146.81 267.837 147.8 269.044 149.714 269.044C151.628 269.044 152.611 267.839 152.611 266.216V261.988ZM154.068 268.869H158.913V267.469H155.582V266.058H158.564V264.658H155.582V263.387H158.738V261.988H154.067V268.869H154.068ZM159.429 268.869H161.224L162.858 266.099L164.537 268.869H166.44L163.955 265.244L166.178 261.988H164.342L162.936 264.396L161.47 261.988H159.565L161.84 265.272L159.433 268.869H159.429ZM171.402 268.869V263.347H169.227V262.065H175.154V263.347H172.978V268.869H171.402ZM175.997 268.869V262.065H179.085C179.825 262.065 180.474 262.207 181.04 262.487C181.602 262.77 182.042 263.163 182.361 263.667C182.676 264.173 182.835 264.771 182.835 265.465C182.835 266.159 182.676 266.748 182.361 267.258C182.042 267.768 181.602 268.161 181.04 268.444C180.475 268.727 179.825 268.867 179.085 268.867H175.997V268.869ZM177.57 267.575H179.006C179.46 267.575 179.853 267.49 180.185 267.318C180.521 267.147 180.78 266.902 180.964 266.584C181.147 266.265 181.241 265.895 181.241 265.467C181.241 265.039 181.147 264.66 180.964 264.345C180.78 264.032 180.52 263.787 180.185 263.616C179.853 263.444 179.46 263.359 179.006 263.359H177.57V267.577V267.575Z" fill="#EBECEC"/>
<path d="M152.668 123.39V122.514L156.788 119.84L157.356 120.716L153.235 123.39V122.514L152.668 123.39ZM152.668 123.39L151.992 122.951L152.668 122.514V123.39ZM157.071 125.627L156.787 126.066L152.668 123.39L153.235 122.514L157.356 125.188L157.071 125.627ZM153.762 123.475C153.472 123.475 153.241 123.239 153.241 122.951C153.241 122.662 153.472 122.429 153.762 122.429V123.475ZM193.726 123.475H153.762V122.429H193.726V123.475ZM194.822 123.39L194.253 122.514V123.39L190.132 120.716L190.701 119.84L194.822 122.514V123.39ZM194.822 123.39V122.514L195.498 122.951L194.822 123.39ZM190.417 125.627L190.132 125.188L194.253 122.514L194.822 123.39L190.701 126.066L190.417 125.627ZM193.726 122.429C194.016 122.429 194.249 122.664 194.249 122.951C194.249 123.238 194.014 123.475 193.726 123.475V122.429Z" fill="#EBECEC"/>
<path d="M269.977 256.441H271.986V258.453H269.977V256.441Z" fill="#CCFF00"/>
<path d="M273.032 256.441H275.043V258.453H273.032V256.441Z" fill="#CCFF00"/>
<path d="M276.007 256.441H278.017V258.453H276.007V256.441Z" fill="#CCFF00"/>
<path d="M279.063 256.441H281.072V258.453H279.063V256.441Z" fill="#CCFF00"/>
<path d="M282.037 256.441H284.047V258.453H282.037V256.441Z" fill="#CCFF00"/>
<path d="M285.012 256.441H287.021V258.453H285.012V256.441Z" fill="#CCFF00"/>
<path d="M288.067 256.441H290.076V258.453H288.067V256.441Z" fill="#CCFF00"/>
<path d="M291.042 256.441H293.052V258.453H291.042V256.441Z" fill="#CCFF00"/>
<path d="M294.096 256.441H296.107V258.453H294.096V256.441Z" fill="#CCFF00"/>
<path d="M297.072 256.441H299.081V258.453H297.072V256.441Z" fill="#CCFF00"/>
<path d="M300.128 256.441H302.136V258.453H300.128V256.441Z" fill="#CCFF00"/>
<path d="M269.977 259.42H271.986V261.43H269.977V259.42Z" fill="#CCFF00"/>
<path d="M273.032 259.42H275.043V261.43H273.032V259.42Z" fill="#CCFF00"/>
<path d="M276.007 259.42H278.017V261.43H276.007V259.42Z" fill="#CCFF00"/>
<path d="M279.063 259.42H281.072V261.43H279.063V259.42Z" fill="#CCFF00"/>
<path d="M282.037 259.42H284.047V261.43H282.037V259.42Z" fill="#CCFF00"/>
<path d="M285.012 259.42H287.021V261.43H285.012V259.42Z" fill="#CCFF00"/>
<path d="M288.067 259.42H290.076V261.43H288.067V259.42Z" fill="#CCFF00"/>
<path d="M291.042 259.42H293.052V261.43H291.042V259.42Z" fill="#CCFF00"/>
<path d="M294.096 259.42H296.107V261.43H294.096V259.42Z" fill="#CCFF00"/>
<path d="M297.072 259.42H299.081V261.43H297.072V259.42Z" fill="#CCFF00"/>
<path d="M300.128 259.42H302.136V261.43H300.128V259.42Z" fill="#CCFF00"/>
<path d="M269.977 262.476H271.986V264.487H269.977V262.476Z" fill="#CCFF00"/>
<path d="M273.032 262.476H275.043V264.487H273.032V262.476Z" fill="#CCFF00"/>
<path d="M276.007 262.476H278.017V264.487H276.007V262.476Z" fill="#CCFF00"/>
<path d="M279.063 262.476H290.076V264.487H279.063V262.476Z" fill="#CCFF00"/>
<path d="M291.042 262.476H293.052V264.487H291.042V262.476Z" fill="#CCFF00"/>
<path d="M294.096 262.476H296.107V264.487H294.096V262.476Z" fill="#CCFF00"/>
<path d="M297.072 262.476H299.081V264.487H297.072V262.476Z" fill="#CCFF00"/>
<path d="M300.128 262.476H302.136V264.487H300.128V262.476Z" fill="#CCFF00"/>
<path d="M308.165 258.292C308.165 258.935 307.684 259.42 307.04 259.42H305.995L305.675 257.248C305.995 257.087 306.156 256.763 306.156 256.363V236.247C306.156 235.685 305.675 235.203 305.111 235.203H300.127V233.271H307.04C307.682 233.271 308.165 233.752 308.165 234.396V258.292ZM267.16 265.453L268.849 255.397H303.342L304.948 265.453H267.16ZM265.071 259.42C264.429 259.42 263.946 258.935 263.946 258.292V234.396C263.946 233.754 264.427 233.271 265.071 233.271H271.985V235.283H266.999C266.437 235.283 265.956 235.764 265.956 236.327V256.439C265.956 256.843 266.198 257.165 266.437 257.328L266.116 259.499H265.071V259.418V259.42ZM275.685 221.202H296.427C297.311 221.202 298.116 221.926 298.116 222.892V225.225H273.997V222.892C273.997 221.926 274.721 221.202 275.686 221.202H275.685ZM298.116 243.65C298.116 244.535 297.392 245.341 296.427 245.341H275.685C274.8 245.341 273.996 244.617 273.996 243.65V227.237H298.114V243.65H298.116ZM304.145 253.384H267.965V237.295H271.985V243.65C271.985 245.661 273.674 247.351 275.685 247.351H296.427C298.438 247.351 300.127 245.661 300.127 243.65V237.295H304.145V253.384ZM307.042 231.262H300.128V222.892C300.128 220.882 298.439 219.192 296.429 219.192H275.686C273.675 219.192 271.986 220.882 271.986 222.892V231.262H265.073C263.304 231.262 261.937 232.71 261.937 234.396V258.211C261.937 259.981 263.384 261.35 265.073 261.35H265.715L264.91 266.175C264.829 266.821 265.314 267.384 265.876 267.384H306.076C306.718 267.384 307.203 266.821 307.042 266.175L306.237 261.35H306.879C308.648 261.35 310.015 259.901 310.015 258.211V234.396C310.176 232.71 308.729 231.262 307.04 231.262H307.042Z" fill="#CCFF00"/>
<path d="M279.063 222.248H281.072V224.259H279.063V222.248Z" fill="#CCFF00"/>
<path d="M276.007 222.248H278.017V224.259H276.007V222.248Z" fill="#CCFF00"/>
<path d="M280.992 239.307H288.067V241.316H280.992V239.307Z" fill="#CCFF00"/>
<path d="M279.063 236.327H290.076V238.341H279.063V236.327Z" fill="#CCFF00"/>
<path d="M291.042 236.327H293.052V238.341H291.042V236.327Z" fill="#CCFF00"/>
<path d="M279.063 242.364H293.134V244.374H279.063V242.364Z" fill="#CCFF00"/>
<path d="M282.037 222.248H284.047V224.259H282.037V222.248Z" fill="#CCFF00"/>
<path d="M302.136 229.248C302.698 229.248 303.101 228.766 303.101 228.282C303.101 227.719 302.62 227.237 302.136 227.237C301.573 227.237 301.091 227.719 301.091 228.282C301.172 228.766 301.575 229.248 302.136 229.248Z" fill="#CCFF00"/>
<path d="M269.977 223.214C270.54 223.214 271.023 222.73 271.023 222.169C271.023 221.607 270.538 221.123 269.977 221.123C269.417 221.123 268.932 221.607 268.932 222.169C268.932 222.73 269.417 223.214 269.977 223.214Z" fill="#CCFF00"/>
<path d="M289.352 233.994C289.756 234.396 290.398 234.396 290.801 233.994L292.81 231.984C293.211 231.58 293.211 230.938 292.81 230.534L290.801 228.524C290.398 228.12 289.756 228.12 289.352 228.524C288.951 228.927 288.951 229.57 289.352 229.972L290.64 231.26L289.352 232.547C288.951 232.95 288.951 233.591 289.352 233.994Z" fill="#CCFF00"/>
<path d="M281.314 233.994C281.715 234.396 282.357 234.396 282.761 233.994C283.162 233.591 283.162 232.95 282.761 232.547L281.473 231.26L282.761 229.972C283.162 229.57 283.162 228.927 282.761 228.524C282.357 228.12 281.715 228.12 281.314 228.524L279.303 230.534C278.902 230.938 278.902 231.58 279.303 231.984L281.314 233.994Z" fill="#CCFF00"/>
<path d="M285.012 234.318C285.414 234.318 285.736 234.076 285.897 233.754L287.906 229.731C288.148 229.25 287.987 228.605 287.425 228.365C286.94 228.122 286.298 228.283 286.056 228.85L284.047 232.872C283.804 233.515 284.289 234.32 285.012 234.32V234.318Z" fill="#CCFF00"/>
<path d="M266.438 225.225C266.681 225.225 266.923 225.467 266.923 225.71C266.923 225.952 266.681 226.191 266.438 226.191C266.196 226.191 265.957 225.949 265.957 225.71C265.957 225.471 266.2 225.225 266.438 225.225ZM266.438 228.281C267.804 228.281 268.93 227.156 268.93 225.788C268.93 224.42 267.804 223.296 266.438 223.296C265.073 223.296 263.948 224.422 263.948 225.788C263.948 227.076 265.073 228.281 266.438 228.281Z" fill="#CCFF00"/>
<path d="M306.158 223.214C306.72 223.214 307.203 223.696 307.203 224.259C307.203 224.821 306.718 225.305 306.158 225.305C305.597 225.305 305.112 224.823 305.112 224.259C305.194 223.696 305.597 223.214 306.158 223.214ZM306.158 227.237C307.847 227.237 309.132 225.871 309.132 224.259C309.132 222.646 307.767 221.202 306.158 221.202C304.469 221.202 303.103 222.572 303.103 224.259C303.103 225.945 304.469 227.237 306.158 227.237Z" fill="#CCFF00"/>
<path d="M240.665 185.466H331.3V289.515H240.665V185.466Z" stroke="#727271" stroke-miterlimit="32.67" stroke-dasharray="2 2"/>
<path d="M254.608 193.423C254.026 192.906 253.278 192.701 252.502 192.701C251.151 192.701 249.877 193.471 249.877 194.938C249.877 197.23 253.101 196.55 253.101 197.814C253.101 198.301 252.55 198.533 252.053 198.533C251.556 198.533 251.044 198.29 250.731 197.881L249.654 199.067C250.305 199.671 251.082 199.933 251.966 199.933C253.383 199.933 254.617 199.203 254.617 197.667C254.617 195.258 251.449 196.066 251.449 194.812C251.449 194.296 252.042 194.101 252.47 194.101C252.838 194.101 253.324 194.248 253.566 194.558L254.608 193.423ZM259.007 198.195C258.764 198.526 258.444 198.768 257.969 198.768C257.404 198.768 256.989 198.407 256.87 197.855H260.25V197.398C260.25 195.89 259.396 194.919 258.037 194.919C256.58 194.919 255.413 195.89 255.413 197.398C255.413 198.906 256.58 199.876 258.037 199.876C258.794 199.876 259.562 199.536 260.029 198.943L259.008 198.196L259.007 198.195ZM256.868 196.864C256.909 196.407 257.259 195.968 257.9 195.968C258.423 195.968 258.802 196.377 258.793 196.864H256.87H256.868ZM265.289 195.549C264.832 195.081 264.162 194.919 263.607 194.919C262.153 194.919 260.986 195.89 260.986 197.398C260.986 198.906 262.153 199.876 263.607 199.876C264.162 199.876 264.832 199.711 265.289 199.246L264.328 198.235C264.162 198.43 263.93 198.593 263.607 198.593C262.878 198.593 262.443 198.108 262.443 197.4C262.443 196.692 262.88 196.204 263.607 196.204C263.909 196.204 264.182 196.358 264.328 196.561L265.289 195.55V195.549ZM265.812 199.759H267.27V197.788C267.27 196.844 267.406 196.204 268.513 196.204C268.727 196.204 268.932 196.241 269.135 196.299V194.968C268.999 194.931 268.815 194.92 268.649 194.92C268.009 194.92 267.6 195.221 267.291 195.797H267.271V195.037H265.814V199.761L265.812 199.759ZM273.039 198.195C272.795 198.526 272.475 198.768 272.001 198.768C271.436 198.768 271.017 198.407 270.902 197.855H274.282V197.398C274.282 195.89 273.428 194.919 272.066 194.919C270.612 194.919 269.445 195.89 269.445 197.398C269.445 198.906 270.612 199.876 272.066 199.876C272.825 199.876 273.591 199.536 274.057 198.943L273.039 198.196V198.195ZM270.901 196.864C270.941 196.407 271.288 195.968 271.928 195.968C272.455 195.968 272.834 196.377 272.823 196.864H270.901ZM278.378 195.035H277.096V193.636H275.639V195.035H274.708V196.204H275.639V198.448C275.639 199.476 276.387 199.876 277.358 199.876C277.697 199.876 278.058 199.846 278.378 199.729V198.515C278.253 198.632 277.941 198.651 277.786 198.651C277.153 198.651 277.096 198.281 277.096 197.775V196.202H278.378V195.034V195.035ZM282.177 199.759H283.693V194.86H283.711L286.712 199.759H288.693V192.878H287.177V197.66H287.158L284.234 192.878H282.177V199.759ZM293.353 198.195C293.111 198.526 292.791 198.768 292.315 198.768C291.752 198.768 291.335 198.407 291.218 197.855H294.598V197.398C294.598 195.89 293.74 194.919 292.382 194.919C290.925 194.919 289.761 195.89 289.761 197.398C289.761 198.906 290.925 199.876 292.382 199.876C293.141 199.876 293.907 199.536 294.373 198.943L293.353 198.196V198.195ZM291.218 196.864C291.255 196.407 291.606 195.968 292.246 195.968C292.769 195.968 293.148 196.377 293.141 196.864H291.218ZM298.696 195.035H297.414V193.636H295.956V195.035H295.024V196.204H295.956V198.448C295.956 199.476 296.704 199.876 297.675 199.876C298.015 199.876 298.374 199.846 298.696 199.729V198.515C298.567 198.632 298.257 198.651 298.103 198.651C297.47 198.651 297.414 198.281 297.414 197.775V196.202H298.696V195.034V195.035ZM300.599 199.759H302.065L302.937 196.619H302.956L303.936 199.759H305.372L307.054 195.035H305.578L304.695 198H304.676L303.8 195.035H302.207L301.402 198H301.382L300.42 195.035H298.867L300.597 199.759H300.599ZM307.35 197.398C307.35 198.904 308.513 199.876 309.971 199.876C311.428 199.876 312.592 198.904 312.592 197.398C312.592 195.892 311.428 194.919 309.971 194.919C308.513 194.919 307.35 195.89 307.35 197.398ZM308.807 197.398C308.807 196.687 309.244 196.202 309.971 196.202C310.698 196.202 311.134 196.687 311.134 197.398C311.134 198.11 310.698 198.591 309.971 198.591C309.244 198.591 308.807 198.106 308.807 197.398ZM313.448 199.759H314.905V197.788C314.905 196.844 315.041 196.204 316.15 196.204C316.362 196.204 316.566 196.241 316.771 196.299V194.968C316.635 194.931 316.451 194.92 316.286 194.92C315.644 194.92 315.236 195.221 314.925 195.797H314.905V195.037H313.448V199.761V199.759ZM317.402 199.759H318.86V197.368H318.877L320.471 199.759H322.307L320.384 197.165L322.259 195.035H320.473L318.862 196.903V192.413H317.404V199.761L317.402 199.759ZM275.98 211.451H277.437V206.727H275.98V211.451ZM275.863 205.24C275.863 205.707 276.242 206.084 276.707 206.084C277.172 206.084 277.55 205.706 277.55 205.24C277.55 204.775 277.172 204.396 276.707 204.396C276.242 204.396 275.863 204.775 275.863 205.24ZM278.484 211.451H279.942V209.1C279.942 208.488 280.06 207.895 280.817 207.895C281.574 207.895 281.576 208.594 281.576 209.139V211.452H283.033V208.847C283.033 207.585 282.761 206.612 281.284 206.612C280.577 206.612 280.099 206.999 279.904 207.371H279.885V206.729H278.486V211.452L278.484 211.451ZM284.565 211.451H286.022V207.895H287.101V206.727H286.022V205.98C286.022 205.357 286.257 205.21 286.722 205.21C286.896 205.21 287.032 205.251 287.198 205.309L287.265 204.076C286.993 204.008 286.701 203.987 286.408 203.987C284.825 203.987 284.563 204.863 284.563 205.892V206.727H283.603V207.895H284.563V211.451H284.565ZM287.655 211.451H289.112V209.479C289.112 208.536 289.246 207.895 290.355 207.895C290.569 207.895 290.771 207.932 290.976 207.991V206.66C290.84 206.622 290.656 206.612 290.491 206.612C289.849 206.612 289.443 206.914 289.13 207.488H289.112V206.729H287.655V211.452V211.451ZM294.568 211.451H295.909V209.049C295.909 207.475 295.452 206.61 293.751 206.61C292.985 206.61 292.209 206.863 291.675 207.369L292.451 208.166C292.76 207.815 293.158 207.601 293.636 207.601C294.14 207.601 294.568 207.932 294.568 208.445C293.353 208.445 291.372 208.475 291.372 210.107C291.372 211.061 292.168 211.566 293.054 211.566C293.647 211.566 294.228 211.362 294.549 210.858H294.568V211.451ZM294.568 209.38V209.693C294.568 210.275 294.034 210.576 293.461 210.576C293.141 210.576 292.771 210.412 292.771 210.061C292.771 209.421 293.762 209.38 294.207 209.38H294.568Z" fill="#EBECEC"/>
<path d="M218.9 154.303H219.776L222.448 158.427L221.571 158.995L218.898 154.871H219.776L218.9 154.303ZM218.9 154.303L219.337 153.627L219.776 154.303H218.9ZM216.665 158.71L216.226 158.427L218.9 154.303L219.776 154.871L217.101 158.995L216.665 158.71ZM218.815 155.399C218.815 155.112 219.05 154.877 219.337 154.877C219.624 154.877 219.859 155.112 219.859 155.399H218.815ZM218.815 235.801V155.399H219.859V235.801H218.815ZM211.679 243.989V242.944L212.045 242.934L212.406 242.906L212.761 242.86L213.112 242.796L213.456 242.714L213.794 242.619L214.125 242.506L214.45 242.376L214.765 242.235L215.073 242.076L215.374 241.902L215.66 241.718L215.943 241.516L216.212 241.304L216.472 241.079L216.719 240.842L216.956 240.592L217.181 240.332L217.395 240.063L217.595 239.784L217.781 239.493L217.952 239.192L218.111 238.885L218.255 238.569L218.384 238.247L218.495 237.915L218.594 237.577L218.672 237.233L218.736 236.883L218.782 236.527L218.81 236.166L218.821 235.798H219.864L219.853 236.219L219.823 236.633L219.77 237.042L219.698 237.444L219.608 237.84L219.496 238.228L219.367 238.608L219.218 238.978L219.054 239.341L218.872 239.695L218.676 240.038L218.462 240.369L218.232 240.69L217.989 240.999L217.733 241.297L217.461 241.582L217.176 241.851L216.88 242.107L216.571 242.352L216.251 242.582L215.918 242.794L215.575 242.99L215.221 243.173L214.861 243.339L214.487 243.486L214.107 243.615L213.722 243.727L213.326 243.821L212.922 243.891L212.514 243.944L212.1 243.978L211.681 243.989H211.679ZM205.954 242.944H211.679V243.989H205.954V242.944ZM204.859 243.028L205.427 243.905V243.028L209.548 245.702L208.98 246.578L204.859 243.907V243.029V243.028ZM204.859 243.028V243.905L204.184 243.467L204.859 243.028ZM209.263 240.791L209.548 241.23L205.427 243.905L204.859 243.028L208.98 240.352L209.263 240.791ZM205.954 243.989C205.667 243.989 205.432 243.753 205.432 243.467C205.432 243.18 205.667 242.944 205.954 242.944V243.989Z" fill="#EBECEC"/>
<path d="M225.207 154.303H226.082L228.755 158.427L227.879 158.995L225.207 154.871H226.082L225.207 154.303ZM225.207 154.303L225.645 153.627L226.082 154.303H225.207ZM222.971 158.71L222.533 158.427L225.207 154.303L226.082 154.871L223.41 158.995L222.971 158.71ZM225.122 155.399C225.122 155.112 225.357 154.877 225.645 154.877C225.934 154.877 226.167 155.112 226.167 155.399H225.122ZM225.122 235.801V155.399H226.167V235.801H225.122ZM233.304 242.944V243.989L232.884 243.978L232.469 243.944L232.06 243.891L231.659 243.821L231.263 243.727L230.875 243.615L230.497 243.486L230.124 243.339L229.763 243.173L229.409 242.99L229.066 242.794L228.733 242.582L228.413 242.352L228.104 242.107L227.807 241.851L227.524 241.582L227.251 241.297L226.995 240.999L226.753 240.69L226.523 240.369L226.309 240.038L226.112 239.695L225.93 239.341L225.766 238.978L225.617 238.608L225.488 238.228L225.377 237.84L225.286 237.444L225.214 237.042L225.161 236.633L225.131 236.219L225.118 235.798H226.164L226.171 236.166L226.199 236.527L226.247 236.883L226.31 237.233L226.388 237.577L226.487 237.915L226.599 238.247L226.728 238.569L226.871 238.885L227.03 239.192L227.202 239.493L227.388 239.784L227.587 240.063L227.8 240.332L228.026 240.592L228.263 240.842L228.511 241.079L228.771 241.304L229.039 241.516L229.322 241.718L229.609 241.902L229.91 242.076L230.217 242.235L230.532 242.376L230.858 242.506L231.188 242.619L231.526 242.714L231.869 242.796L232.219 242.86L232.577 242.906L232.937 242.934L233.304 242.944ZM239.028 243.989H233.304V242.944H239.028V243.989ZM240.123 243.905L239.556 243.028V243.905L235.435 241.231L236.002 240.353L240.123 243.028V243.905ZM240.123 243.905V243.028L240.799 243.467L240.123 243.905ZM235.719 246.141L235.435 245.704L239.556 243.028L240.123 243.905L236.002 246.58L235.719 246.141ZM239.028 242.944C239.315 242.944 239.55 243.176 239.55 243.467C239.55 243.757 239.315 243.989 239.028 243.989V242.944Z" fill="#EBECEC"/>
<path d="M265.271 281.317C264.726 281.317 264.208 281.245 263.708 281.098C263.207 280.951 262.807 280.762 262.503 280.53L263.037 279.342C263.329 279.551 263.672 279.721 264.07 279.854C264.468 279.985 264.871 280.054 265.28 280.054C265.589 280.054 265.842 280.02 266.033 279.96C266.223 279.9 266.364 279.813 266.454 279.703C266.544 279.592 266.59 279.466 266.59 279.325C266.59 279.142 266.52 278.999 266.378 278.891C266.235 278.785 266.047 278.696 265.814 278.629C265.582 278.562 265.322 278.498 265.043 278.434C264.76 278.374 264.479 278.298 264.199 278.208C263.916 278.118 263.66 277.999 263.425 277.857C263.193 277.714 263.004 277.527 262.857 277.293C262.71 277.061 262.638 276.764 262.638 276.399C262.638 276.012 262.744 275.656 262.952 275.336C263.165 275.015 263.481 274.759 263.906 274.569C264.328 274.378 264.861 274.282 265.504 274.282C265.931 274.282 266.352 274.332 266.767 274.435C267.181 274.536 267.545 274.684 267.864 274.886L267.377 276.082C267.063 275.9 266.744 275.767 266.428 275.679C266.111 275.59 265.8 275.548 265.496 275.548C265.191 275.548 264.94 275.583 264.748 275.654C264.553 275.727 264.415 275.819 264.332 275.932C264.247 276.045 264.203 276.176 264.203 276.325C264.203 276.498 264.275 276.64 264.417 276.748C264.56 276.854 264.748 276.939 264.981 277.004C265.213 277.07 265.469 277.134 265.752 277.199C266.035 277.265 266.315 277.337 266.596 277.42C266.879 277.505 267.135 277.62 267.367 277.76C267.602 277.904 267.79 278.091 267.936 278.325C268.083 278.557 268.156 278.852 268.156 279.208C268.156 279.592 268.048 279.942 267.834 280.259C267.622 280.578 267.301 280.833 266.879 281.025C266.456 281.218 265.918 281.317 265.271 281.317ZM271.721 281.277C271.123 281.277 270.602 281.16 270.151 280.926C269.701 280.694 269.355 280.374 269.107 279.971C268.863 279.565 268.739 279.103 268.739 278.587C268.739 278.07 268.86 277.597 269.102 277.192C269.346 276.787 269.677 276.47 270.098 276.238C270.518 276.008 270.994 275.895 271.527 275.895C272.059 275.895 272.499 276.003 272.91 276.22C273.32 276.438 273.645 276.748 273.886 277.153C274.125 277.557 274.243 278.042 274.243 278.606C274.243 278.665 274.241 278.73 274.236 278.806C274.229 278.879 274.224 278.949 274.217 279.013H269.972V278.13H273.421L272.839 278.392C272.839 278.119 272.784 277.882 272.673 277.684C272.565 277.482 272.411 277.327 272.216 277.212C272.022 277.096 271.795 277.04 271.535 277.04C271.275 277.04 271.049 277.098 270.853 277.212C270.656 277.325 270.503 277.484 270.391 277.686C270.28 277.889 270.225 278.132 270.225 278.411V278.643C270.225 278.928 270.289 279.181 270.414 279.397C270.543 279.615 270.718 279.778 270.948 279.891C271.18 280.004 271.451 280.063 271.76 280.063C272.039 280.063 272.284 280.02 272.494 279.933C272.706 279.85 272.897 279.725 273.071 279.555L273.877 280.431C273.638 280.703 273.338 280.912 272.975 281.059C272.613 281.202 272.193 281.277 271.723 281.277H271.721ZM277.78 281.277C277.216 281.277 276.714 281.164 276.275 280.932C275.835 280.702 275.488 280.385 275.239 279.976C274.991 279.567 274.866 279.103 274.866 278.587C274.866 278.07 274.991 277.597 275.239 277.192C275.488 276.787 275.833 276.47 276.275 276.238C276.714 276.008 277.216 275.895 277.78 275.895C278.345 275.895 278.808 276.008 279.216 276.238C279.625 276.47 279.924 276.797 280.122 277.224L278.944 277.857C278.808 277.61 278.64 277.429 278.435 277.312C278.231 277.196 278.009 277.139 277.77 277.139C277.51 277.139 277.278 277.197 277.071 277.312C276.864 277.429 276.702 277.596 276.579 277.81C276.461 278.022 276.401 278.282 276.401 278.587C276.401 278.891 276.461 279.149 276.579 279.364C276.7 279.578 276.864 279.742 277.071 279.861C277.278 279.978 277.51 280.034 277.77 280.034C278.009 280.034 278.231 279.979 278.435 279.866C278.638 279.753 278.808 279.569 278.944 279.316L280.122 279.956C279.926 280.378 279.625 280.703 279.216 280.933C278.808 281.165 278.329 281.279 277.78 281.279V281.277ZM280.994 281.199V275.971H282.441V277.449L282.239 277.022C282.393 276.652 282.642 276.371 282.985 276.18C283.328 275.989 283.746 275.895 284.238 275.895V277.293C284.174 277.288 284.114 277.282 284.064 277.281C284.011 277.275 283.958 277.275 283.898 277.275C283.484 277.275 283.15 277.394 282.895 277.629C282.639 277.866 282.51 278.234 282.51 278.734V281.201H280.994V281.199ZM287.686 281.277C287.092 281.277 286.567 281.16 286.119 280.926C285.668 280.694 285.32 280.374 285.076 279.971C284.828 279.565 284.706 279.103 284.706 278.587C284.706 278.07 284.826 277.597 285.072 277.192C285.315 276.787 285.647 276.47 286.068 276.238C286.489 276.008 286.963 275.895 287.495 275.895C288.028 275.895 288.468 276.003 288.878 276.22C289.289 276.438 289.614 276.748 289.855 277.153C290.093 277.557 290.215 278.042 290.215 278.606C290.215 278.665 290.214 278.73 290.205 278.806C290.198 278.879 290.192 278.949 290.185 279.013H285.942V278.13H289.388L288.806 278.392C288.806 278.119 288.751 277.882 288.641 277.684C288.53 277.482 288.38 277.327 288.185 277.212C287.989 277.098 287.764 277.04 287.504 277.04C287.244 277.04 287.018 277.098 286.818 277.212C286.622 277.325 286.468 277.484 286.356 277.686C286.248 277.889 286.192 278.132 286.192 278.411V278.643C286.192 278.928 286.256 279.181 286.381 279.397C286.507 279.613 286.685 279.778 286.915 279.891C287.145 280.004 287.414 280.063 287.723 280.063C288.003 280.063 288.247 280.02 288.457 279.933C288.67 279.85 288.861 279.725 289.038 279.555L289.842 280.431C289.603 280.703 289.303 280.912 288.94 281.059C288.578 281.202 288.162 281.277 287.688 281.277H287.686ZM293.358 281.277C292.743 281.277 292.263 281.121 291.922 280.804C291.579 280.491 291.407 280.022 291.407 279.403V274.815H292.923V279.383C292.923 279.603 292.982 279.774 293.096 279.893C293.213 280.013 293.371 280.072 293.572 280.072C293.811 280.072 294.016 280.008 294.184 279.877L294.593 280.946C294.437 281.057 294.25 281.14 294.034 281.194C293.816 281.248 293.593 281.277 293.358 281.277ZM290.601 277.137V275.969H294.223V277.137H290.601ZM297.592 281.199L294.662 274.396H296.361L298.924 280.422H297.923L300.526 274.396H302.09L299.149 281.199H297.594H297.592ZM302.654 281.199V274.396H303.954L306.847 279.199H306.159L309.005 274.396H310.296L310.316 281.199H308.839L308.828 276.661H309.101L306.826 280.48H306.119L303.797 276.661H304.127V281.199H302.652H302.654Z" fill="#EBECEC"/>
<path d="M67.9514 69.545H68.8269L71.4993 73.6686L70.622 74.2385L67.9532 70.1148H68.8287L67.9532 69.545H67.9514ZM67.9514 69.545L68.3901 68.8689L68.8269 69.5467H67.9514V69.545ZM65.7159 73.9518L65.2773 73.6669L67.9514 69.5432L68.8269 70.1131L66.1545 74.2367L65.7159 73.9518ZM67.8666 70.6405C67.8666 70.3502 68.1018 70.1184 68.3883 70.1184C68.6748 70.1184 68.9118 70.3502 68.9118 70.6405H67.8666ZM67.8666 104.182V70.6405H68.9118V104.182H67.8666ZM60.7302 112.369V111.323L61.0963 111.316L61.4571 111.288L61.8144 111.24L62.1646 111.176L62.5077 111.098L62.8455 110.999L63.1762 110.888L63.5016 110.759L63.8165 110.615L64.1242 110.456L64.4249 110.284L64.7149 110.099L64.9943 109.899L65.2632 109.684L65.5232 109.46L65.7708 109.222L66.0078 108.975L66.2341 108.715L66.4464 108.446L66.6462 108.162L66.8319 107.876L67.0035 107.575L67.1627 107.267L67.3059 106.952L67.435 106.626L67.5464 106.295L67.6455 105.957L67.7268 105.614L67.787 105.263L67.8347 104.906L67.863 104.545L67.8701 104.178H68.9153L68.903 104.598L68.8729 105.014L68.8198 105.423L68.7473 105.824L68.6571 106.221L68.5457 106.608L68.4166 106.987L68.268 107.361L68.1036 107.722L67.9214 108.076L67.7251 108.419L67.5111 108.752L67.2812 109.072L67.0388 109.382L66.7824 109.679L66.51 109.962L66.2271 110.235L65.9299 110.491L65.6204 110.734L65.3003 110.964L64.9678 111.178L64.6247 111.375L64.271 111.557L63.9102 111.721L63.537 111.87L63.1585 111.999L62.7712 112.111L62.375 112.201L61.9736 112.274L61.565 112.327L61.1494 112.357L60.7302 112.369ZM53.5745 111.323H60.7302V112.369H53.5745V111.323ZM53.5745 112.369C53.288 112.369 53.0527 112.134 53.0527 111.845C53.0527 111.557 53.288 111.323 53.5745 111.323V112.369Z" fill="#EBECEC"/>
<path d="M49.4148 15.9832H198.952V69.2086H49.4148V15.9832Z" stroke="#727271" stroke-miterlimit="32.67" stroke-dasharray="2 2"/>
<path d="M50.3362 7.40321H53.1518C54.3774 7.40321 55.7357 6.92712 55.7357 5.48827C55.7357 4.59274 55.1326 3.92198 54.2306 3.80517V3.78747C54.9381 3.56271 55.4156 3.03884 55.4156 2.26897C55.4156 0.773477 54.1051 0.520393 52.9007 0.520393H50.338V7.40143L50.3362 7.40321ZM51.8519 1.80351H52.8794C53.3552 1.80351 53.8999 1.9504 53.8999 2.52559C53.8999 3.10078 53.4136 3.27246 52.9466 3.27246H51.8501V1.80528L51.8519 1.80351ZM51.8519 4.55557H52.9979C53.4914 4.55557 54.22 4.66176 54.22 5.31305C54.22 5.91656 53.6859 6.12009 53.2102 6.12009H51.8519V4.55557ZM56.4644 7.40321H57.9217V0.0549316H56.4644V7.40321ZM58.7954 5.04227C58.7954 6.54838 59.9592 7.52001 61.4165 7.52001C62.8738 7.52001 64.0411 6.54838 64.0411 5.04227C64.0411 3.53616 62.8738 2.56276 61.4165 2.56276C59.9592 2.56276 58.7954 3.53439 58.7954 5.04227ZM60.2527 5.04227C60.2527 4.33081 60.6896 3.84588 61.4165 3.84588C62.1434 3.84588 62.5838 4.33081 62.5838 5.04227C62.5838 5.75374 62.1452 6.23513 61.4165 6.23513C60.6878 6.23513 60.2527 5.7502 60.2527 5.04227ZM69.0515 3.19281C68.5952 2.72912 67.9249 2.56276 67.3696 2.56276C65.9123 2.56276 64.7485 3.53439 64.7485 5.04227C64.7485 6.55015 65.9123 7.52001 67.3696 7.52001C67.9249 7.52001 68.5952 7.35542 69.0515 6.88996L68.0894 5.87939C67.9249 6.07407 67.6915 6.2369 67.3714 6.2369C66.6427 6.2369 66.2076 5.75197 66.2076 5.04404C66.2076 4.33612 66.6445 3.84765 67.3714 3.84765C67.6738 3.84765 67.9462 4.00162 68.0894 4.20515L69.0515 3.19458V3.19281ZM69.5751 7.40321H71.0324V5.01218H71.0501L72.6436 7.40321H74.4812L72.5587 4.80866L74.4316 2.67957H72.6453L71.0342 4.54672V0.0549316H69.5768V7.40321H69.5751ZM79.1308 3.19281C78.6745 2.72912 78.0042 2.56276 77.4524 2.56276C75.9951 2.56276 74.8278 3.53439 74.8278 5.04227C74.8278 6.55015 75.9951 7.52001 77.4524 7.52001C78.0042 7.52001 78.6745 7.35542 79.1308 6.88996L78.1705 5.87939C78.0042 6.07407 77.7725 6.2369 77.4524 6.2369C76.7237 6.2369 76.2851 5.75197 76.2851 5.04404C76.2851 4.33612 76.7237 3.84765 77.4524 3.84765C77.7531 3.84765 78.0254 4.00162 78.1705 4.20515L79.1308 3.19458V3.19281ZM79.6543 0.0549316V7.40321H81.1117V5.04935C81.1117 4.43876 81.2284 3.84588 81.9871 3.84588C82.7458 3.84588 82.7458 4.54495 82.7458 5.09006V7.40321H84.1996V4.79804C84.1996 3.53439 83.9308 2.56276 82.4523 2.56276C81.7448 2.56276 81.2673 2.95035 81.1311 3.32201H81.1117V0.0549316H79.6543ZM88.1914 7.40321H89.532V5.00157C89.532 3.4282 89.0757 2.56276 87.3743 2.56276C86.6085 2.56276 85.8321 2.81584 85.2979 3.32201L86.0743 4.11843C86.3839 3.768 86.7818 3.55386 87.2593 3.55386C87.7651 3.55386 88.1914 3.88481 88.1914 4.39806C86.9763 4.39806 84.9955 4.42815 84.9955 6.05992C84.9955 7.01385 85.7914 7.51824 86.6774 7.51824C87.2699 7.51824 87.8518 7.31471 88.1719 6.81032H88.1914V7.40321ZM88.1914 5.33252V5.64224C88.1914 6.22805 87.6573 6.52715 87.0842 6.52715C86.7641 6.52715 86.3945 6.36255 86.3945 6.01213C86.3945 5.37146 87.3849 5.33075 87.8341 5.33075H88.1914V5.33252ZM90.464 7.40321H91.9214V2.6778H90.464V7.40143V7.40321ZM90.3455 1.19292C90.3455 1.66015 90.7258 2.03712 91.1927 2.03712C91.6596 2.03712 92.0363 1.65838 92.0363 1.19292C92.0363 0.727461 91.6578 0.348721 91.1927 0.348721C90.7275 0.348721 90.3455 0.727461 90.3455 1.19292ZM92.9701 7.40321H94.4275V5.04935C94.4275 4.43876 94.5442 3.84588 95.2994 3.84588C96.0546 3.84588 96.0581 4.54495 96.0581 5.09006V7.40321H97.5154V4.79804C97.5154 3.53439 97.2431 2.56276 95.7663 2.56276C95.0589 2.56276 94.5813 2.95035 94.3868 3.32201H94.3691V2.67957H92.9701V7.40321Z" fill="#EBECEC"/>
<path d="M201.12 93.6674V86.8643H202.693V92.3861H206.101V93.6674H201.12ZM209.327 93.7453C208.77 93.7453 208.276 93.6285 207.845 93.3949C207.413 93.163 207.073 92.8427 206.824 92.4392C206.577 92.0339 206.451 91.572 206.451 91.0552C206.451 90.5384 206.577 90.0641 206.824 89.6606C207.073 89.2553 207.413 88.9367 207.845 88.7066C208.276 88.4766 208.77 88.3615 209.327 88.3615C209.884 88.3615 210.368 88.4783 210.802 88.7066C211.235 88.935 211.576 89.2535 211.822 89.6553C212.066 90.057 212.19 90.5225 212.19 91.0552C212.19 91.5879 212.066 92.0339 211.822 92.4392C211.575 92.8427 211.235 93.163 210.802 93.3949C210.368 93.6303 209.877 93.7453 209.327 93.7453ZM209.327 92.5011C209.58 92.5011 209.806 92.4427 210.004 92.3241C210.206 92.2073 210.365 92.041 210.48 91.8251C210.597 91.6074 210.657 91.3507 210.657 91.0534C210.657 90.7561 210.597 90.4888 210.48 90.2747C210.363 90.0623 210.206 89.896 210.004 89.7809C209.804 89.6641 209.578 89.6075 209.327 89.6075C209.076 89.6075 208.847 89.6659 208.646 89.7809C208.444 89.896 208.285 90.0641 208.165 90.2747C208.046 90.4888 207.986 90.749 207.986 91.0534C207.986 91.3578 208.046 91.6091 208.165 91.8251C208.285 92.0428 208.444 92.2091 208.646 92.3241C208.847 92.4427 209.072 92.5011 209.327 92.5011ZM216.318 93.6657V92.6463L216.219 92.4215V90.595C216.219 90.2694 216.12 90.0181 215.924 89.8358C215.724 89.6535 215.421 89.5632 215.016 89.5632C214.737 89.5632 214.464 89.6057 214.194 89.6942C213.925 89.7827 213.697 89.9013 213.508 90.0499L212.966 88.9898C213.251 88.7881 213.594 88.6341 213.994 88.5226C214.394 88.4111 214.802 88.3562 215.216 88.3562C216.012 88.3562 216.633 88.5456 217.071 88.9208C217.512 89.296 217.731 89.8818 217.731 90.6782V93.6621H216.314L216.318 93.6657ZM214.724 93.7435C214.316 93.7435 213.966 93.6727 213.676 93.5347C213.384 93.3967 213.161 93.2073 213.005 92.9666C212.85 92.7259 212.77 92.4569 212.77 92.1596C212.77 91.8622 212.848 91.5773 213 91.3419C213.152 91.1101 213.393 90.926 213.723 90.795C214.054 90.6605 214.484 90.595 215.016 90.595H216.405V91.4782H215.179C214.823 91.4782 214.579 91.5366 214.445 91.6552C214.311 91.772 214.245 91.9171 214.245 92.0923C214.245 92.287 214.321 92.441 214.475 92.5542C214.627 92.6675 214.836 92.7224 215.099 92.7224C215.363 92.7224 215.579 92.664 215.78 92.5436C215.982 92.425 216.125 92.248 216.217 92.0144L216.452 92.7153C216.341 93.0515 216.139 93.3082 215.849 93.4816C215.557 93.6551 215.181 93.7435 214.723 93.7435H214.724ZM221.387 93.7435C220.895 93.7435 220.451 93.632 220.057 93.4073C219.664 93.1825 219.351 92.8728 219.119 92.4693C218.89 92.0675 218.776 91.5932 218.776 91.0516C218.776 90.5101 218.89 90.0252 219.119 89.6216C219.351 89.2199 219.664 88.9102 220.057 88.6889C220.453 88.4695 220.897 88.358 221.387 88.358C221.827 88.358 222.213 88.4571 222.543 88.65C222.874 88.8429 223.129 89.1385 223.309 89.5349C223.491 89.9278 223.582 90.4358 223.582 91.0516C223.582 91.6675 223.493 92.1631 223.32 92.5631C223.147 92.9631 222.894 93.2568 222.566 93.4515C222.241 93.6462 221.848 93.7435 221.387 93.7435ZM221.649 92.4994C221.896 92.4994 222.117 92.441 222.319 92.3224C222.52 92.2056 222.68 92.0392 222.8 91.8233C222.918 91.6056 222.979 91.349 222.979 91.0516C222.979 90.7543 222.918 90.4871 222.8 90.2729C222.68 90.0606 222.52 89.8942 222.319 89.7792C222.117 89.6641 221.896 89.6057 221.649 89.6057C221.401 89.6057 221.169 89.6641 220.968 89.7792C220.768 89.896 220.607 90.0623 220.488 90.2729C220.368 90.4871 220.306 90.7472 220.306 91.0516C220.306 91.3561 220.366 91.6074 220.488 91.8233C220.607 92.041 220.768 92.2073 220.968 92.3224C221.169 92.441 221.396 92.4994 221.649 92.4994ZM223.017 93.6639V92.5949L223.048 91.041L222.948 89.4942V86.4519H224.466V93.6639H223.017ZM228.719 93.6639V86.8607H232.041C232.895 86.8607 233.539 87.0218 233.969 87.3474C234.4 87.6695 234.614 88.0996 234.614 88.6288C234.614 88.9863 234.526 89.2942 234.352 89.5562C234.179 89.8181 233.939 90.0234 233.634 90.1632C233.33 90.3066 232.978 90.3774 232.586 90.3774L232.77 89.9791C233.196 89.9791 233.576 90.0464 233.907 90.188C234.237 90.326 234.494 90.5331 234.678 90.8039C234.862 91.0764 234.956 91.4109 234.956 91.8056C234.956 92.3879 234.726 92.8445 234.266 93.1719C233.808 93.4975 233.129 93.6604 232.237 93.6604H228.721L228.719 93.6639ZM230.285 92.4781H232.12C232.529 92.4781 232.837 92.4126 233.047 92.2781C233.256 92.1436 233.362 91.933 233.362 91.6428C233.362 91.3525 233.256 91.1455 233.047 91.0039C232.835 90.8658 232.527 90.795 232.12 90.795H230.166V89.65H231.848C232.228 89.65 232.524 89.5845 232.727 89.45C232.929 89.3155 233.031 89.1137 233.031 88.8429C233.031 88.5721 232.929 88.3792 232.727 88.2447C232.524 88.1102 232.228 88.0447 231.848 88.0447H230.285V92.4764V92.4781ZM239.248 93.6639V92.6445L239.149 92.4197V90.5933C239.149 90.2676 239.05 90.0163 238.854 89.834C238.657 89.6517 238.351 89.5615 237.946 89.5615C237.667 89.5615 237.394 89.6039 237.124 89.6924C236.855 89.7809 236.627 89.8995 236.438 90.0482L235.896 88.988C236.181 88.7863 236.524 88.6323 236.924 88.5208C237.324 88.4093 237.732 88.3545 238.15 88.3545C238.944 88.3545 239.564 88.5438 240.001 88.919C240.442 89.2942 240.661 89.88 240.661 90.6764V93.6604H239.244L239.248 93.6639ZM237.654 93.7418C237.246 93.7418 236.897 93.671 236.606 93.5329C236.314 93.3949 236.091 93.2055 235.935 92.9648C235.78 92.7241 235.704 92.4551 235.704 92.1578C235.704 91.8605 235.78 91.5755 235.93 91.3401C236.084 91.1083 236.323 90.9242 236.653 90.7933C236.984 90.6588 237.414 90.5933 237.946 90.5933H239.335V91.4764H238.109C237.753 91.4764 237.509 91.5348 237.375 91.6534C237.244 91.7702 237.175 91.9153 237.175 92.0905C237.175 92.2852 237.251 92.4392 237.405 92.5525C237.557 92.6657 237.766 92.7206 238.029 92.7206C238.293 92.7206 238.509 92.6622 238.71 92.5418C238.912 92.4233 239.055 92.2463 239.147 92.0127L239.382 92.7135C239.271 93.0498 239.073 93.3064 238.779 93.4798C238.487 93.6533 238.111 93.7418 237.653 93.7418H237.654ZM242.035 93.6639V86.4519H243.551V93.6639H242.035ZM248.163 93.6639V92.6445L248.064 92.4197V90.5933C248.064 90.2676 247.965 90.0163 247.769 89.834C247.573 89.6517 247.267 89.5615 246.862 89.5615C246.582 89.5615 246.31 89.6039 246.039 89.6924C245.772 89.7809 245.542 89.8995 245.353 90.0482L244.812 88.988C245.097 88.7863 245.44 88.6323 245.839 88.5208C246.239 88.4093 246.648 88.3545 247.065 88.3545C247.861 88.3545 248.48 88.5438 248.92 88.919C249.359 89.2942 249.58 89.88 249.58 90.6764V93.6604H248.162L248.163 93.6639ZM246.57 93.7418C246.161 93.7418 245.813 93.671 245.521 93.5329C245.229 93.3949 245.006 93.2055 244.851 92.9648C244.695 92.7241 244.619 92.4551 244.619 92.1578C244.619 91.8605 244.695 91.5755 244.846 91.3401C244.999 91.1083 245.238 90.9242 245.569 90.7933C245.9 90.6588 246.329 90.5933 246.862 90.5933H248.25V91.4764H247.024C246.669 91.4764 246.425 91.5348 246.29 91.6534C246.16 91.7702 246.091 91.9153 246.091 92.0905C246.091 92.2852 246.167 92.4392 246.321 92.5525C246.473 92.6657 246.681 92.7206 246.945 92.7206C247.208 92.7206 247.424 92.6622 247.626 92.5418C247.827 92.4233 247.971 92.2463 248.063 92.0127L248.298 92.7135C248.186 93.0498 247.988 93.3064 247.695 93.4798C247.403 93.6533 247.026 93.7418 246.568 93.7418H246.57ZM250.951 93.6639V88.4359H252.397V89.8836L252.125 89.4464C252.314 89.096 252.581 88.8288 252.932 88.6394C253.282 88.4536 253.68 88.3562 254.127 88.3562C254.541 88.3562 254.911 88.4394 255.238 88.6058C255.565 88.7704 255.823 89.0217 256.009 89.3632C256.198 89.7031 256.292 90.1402 256.292 90.6694V93.6639H254.776V90.9048C254.776 90.4835 254.683 90.1738 254.499 89.9721C254.315 89.7703 254.055 89.6712 253.717 89.6712C253.478 89.6712 253.261 89.719 253.071 89.8199C252.88 89.9207 252.732 90.0747 252.622 90.2818C252.516 90.4906 252.463 90.7561 252.463 91.0782V93.6639H250.947H250.951ZM260.224 93.7418C259.661 93.7418 259.161 93.625 258.718 93.3967C258.28 93.1666 257.935 92.8462 257.686 92.441C257.436 92.0321 257.312 91.5684 257.312 91.0516C257.312 90.5349 257.436 90.0606 257.686 89.657C257.935 89.2517 258.28 88.9332 258.718 88.7031C259.159 88.473 259.661 88.358 260.224 88.358C260.786 88.358 261.255 88.4748 261.663 88.7031C262.072 88.9314 262.371 89.2624 262.565 89.6889L261.391 90.3225C261.255 90.0747 261.083 89.8942 260.881 89.7774C260.678 89.6606 260.455 89.6039 260.216 89.6039C259.956 89.6039 259.723 89.6623 259.516 89.7774C259.309 89.8942 259.146 90.0606 259.028 90.2712C258.908 90.4853 258.846 90.7455 258.846 91.0499C258.846 91.3543 258.906 91.6127 259.028 91.8268C259.146 92.041 259.311 92.2056 259.516 92.3206C259.723 92.4392 259.956 92.4976 260.216 92.4976C260.455 92.4976 260.678 92.4392 260.881 92.3259C261.083 92.2126 261.255 92.0304 261.391 91.779L262.565 92.4197C262.371 92.8409 262.072 93.1666 261.663 93.3967C261.255 93.6267 260.775 93.7418 260.224 93.7418ZM265.966 93.7418C265.368 93.7418 264.847 93.625 264.396 93.3913C263.946 93.1595 263.6 92.8392 263.352 92.4356C263.108 92.0304 262.984 91.5684 262.984 91.0516C262.984 90.5349 263.105 90.0606 263.347 89.657C263.591 89.2517 263.922 88.9332 264.343 88.7031C264.764 88.473 265.239 88.358 265.772 88.358C266.304 88.358 266.743 88.466 267.155 88.6836C267.565 88.9013 267.89 89.2128 268.131 89.6163C268.37 90.0216 268.488 90.5066 268.488 91.0694C268.488 91.1295 268.486 91.195 268.481 91.2693C268.474 91.3454 268.465 91.4162 268.462 91.4782H264.217V90.595H267.666L267.084 90.857C267.084 90.5844 267.029 90.3473 266.918 90.1455C266.81 89.9455 266.656 89.788 266.461 89.6765C266.267 89.5632 266.04 89.5048 265.781 89.5048C265.521 89.5048 265.294 89.5632 265.098 89.6765C264.898 89.788 264.744 89.9455 264.636 90.1508C264.525 90.3543 264.47 90.5968 264.47 90.8747V91.1101C264.47 91.395 264.534 91.6445 264.659 91.8622C264.785 92.0799 264.963 92.2463 265.193 92.3595C265.425 92.4728 265.696 92.5277 266.005 92.5277C266.285 92.5277 266.527 92.487 266.739 92.402C266.948 92.3188 267.142 92.1932 267.316 92.0233L268.122 92.8993C267.883 93.1719 267.583 93.379 267.22 93.5241C266.858 93.671 266.438 93.7435 265.968 93.7435L265.966 93.7418ZM269.5 93.6639V88.4359H270.947V89.9137L270.743 89.4854C270.899 89.1172 271.148 88.8376 271.491 88.6447C271.834 88.4536 272.252 88.358 272.743 88.358V89.7579C272.678 89.7526 272.62 89.7473 272.57 89.742C272.517 89.7402 272.462 89.7402 272.404 89.7402C271.99 89.7402 271.656 89.857 271.398 90.0942C271.143 90.3313 271.014 90.6995 271.014 91.1985V93.6657H269.498L269.5 93.6639Z" fill="#EBECEC"/>
<path fill-rule="evenodd" clip-rule="evenodd" d="M241.112 147.649H202.519C200.991 147.649 199.707 146.362 199.707 144.835V112.41H243.928V144.835C243.928 146.364 242.64 147.649 241.112 147.649ZM202.519 104.364H241.192C242.72 104.364 244.007 105.653 244.007 107.178V110.398H199.705V107.178C199.705 105.653 200.991 104.364 202.518 104.364H202.519ZM241.112 102.354H202.519C199.868 102.354 197.695 104.525 197.695 107.178V144.833C197.695 147.486 199.866 149.661 202.519 149.661H241.192C243.846 149.661 246.016 147.488 246.016 144.833V107.178C245.935 104.525 243.765 102.354 241.112 102.354Z" fill="#CCFF00"/>
<path fill-rule="evenodd" clip-rule="evenodd" d="M202.762 106.375H204.771V108.387H202.762V106.375Z" fill="#CCFF00"/>
<path fill-rule="evenodd" clip-rule="evenodd" d="M205.735 106.375H207.744V108.387H205.735V106.375Z" fill="#CCFF00"/>
<path fill-rule="evenodd" clip-rule="evenodd" d="M208.791 106.375H210.8V108.387H208.791V106.375Z" fill="#CCFF00"/>
<path fill-rule="evenodd" clip-rule="evenodd" d="M239.906 108.387C240.468 108.387 240.949 107.906 240.949 107.421C240.949 106.858 240.468 106.375 239.906 106.375C239.343 106.375 238.861 106.86 238.861 107.421C238.861 107.982 239.342 108.387 239.906 108.387Z" fill="#CCFF00"/>
<path fill-rule="evenodd" clip-rule="evenodd" d="M216.831 108.387H236.929C237.493 108.387 237.975 107.906 237.975 107.421C237.975 106.858 237.493 106.375 236.929 106.375H216.831C216.268 106.375 215.786 106.86 215.786 107.421C215.786 107.982 216.27 108.387 216.831 108.387Z" fill="#CCFF00"/>
<path d="M221.857 130.26C225.626 130.26 229.055 130.889 231.558 131.899C234.345 133.028 236.071 134.697 236.071 136.635C236.071 138.573 234.345 140.242 231.558 141.371C229.055 142.382 225.624 143.01 221.857 143.01C218.09 143.01 214.655 142.382 212.156 141.371C209.366 140.242 207.639 138.573 207.639 136.635C207.639 134.697 209.366 133.028 212.153 131.899C214.655 130.889 218.088 130.26 221.857 130.26ZM230.783 133.834C228.52 132.919 225.364 132.35 221.857 132.35C218.35 132.35 215.195 132.919 212.929 133.834C210.95 134.633 209.728 135.632 209.728 136.635C209.728 137.639 210.95 138.639 212.929 139.437C215.195 140.352 218.348 140.92 221.857 140.92C225.366 140.92 228.52 140.352 230.783 139.437C232.762 138.637 233.985 137.639 233.985 136.635C233.985 135.632 232.762 134.632 230.783 133.834Z" fill="#CCFF00"/>
<path d="M221.857 122.498C224.618 122.498 227.138 122.956 228.978 123.703C231.107 124.563 232.426 125.864 232.426 127.395C232.426 128.926 231.109 130.225 228.978 131.087C227.138 131.83 224.616 132.292 221.857 132.292C219.098 132.292 216.576 131.83 214.733 131.087C212.604 130.225 211.288 128.926 211.288 127.395C211.288 125.864 212.604 124.563 214.733 123.703C216.576 122.956 219.096 122.498 221.857 122.498ZM228.205 125.637C226.599 124.99 224.356 124.586 221.857 124.586C219.358 124.586 217.114 124.99 215.508 125.637C214.192 126.17 213.375 126.798 213.375 127.395C213.375 127.991 214.192 128.618 215.508 129.152C217.114 129.8 219.356 130.204 221.857 130.204C224.358 130.204 226.599 129.8 228.205 129.152C229.521 128.618 230.338 127.99 230.338 127.395C230.338 126.8 229.521 126.168 228.205 125.637Z" fill="#CCFF00"/>
<path d="M221.857 116.64C223.759 116.64 225.502 116.962 226.779 117.48C228.346 118.114 229.315 119.1 229.315 120.282C229.315 121.464 228.348 122.452 226.779 123.087C225.501 123.604 223.757 123.924 221.857 123.924C219.958 123.924 218.212 123.604 216.932 123.087C215.366 122.452 214.396 121.468 214.396 120.282C214.396 119.096 215.366 118.112 216.932 117.48C218.212 116.964 219.954 116.64 221.857 116.64ZM226.006 119.415C224.963 118.994 223.499 118.732 221.857 118.732C220.216 118.732 218.75 118.994 217.706 119.415C216.953 119.719 216.486 120.032 216.486 120.282C216.486 120.531 216.953 120.845 217.708 121.149C218.75 121.572 220.216 121.832 221.857 121.832C223.499 121.832 224.963 121.572 226.006 121.149C226.76 120.845 227.229 120.531 227.229 120.282C227.229 120.032 226.76 119.719 226.006 119.415Z" fill="#CCFF00"/>
<path d="M91.2387 28.8676L84.2545 42.1253C84.0688 42.4793 83.7045 42.6828 83.3313 42.6828L66.8196 42.6846C66.243 42.6846 65.7761 42.2156 65.7761 41.6386C65.7761 41.4368 65.831 41.251 65.9318 41.0882L72.916 27.8305C73.1017 27.4765 73.4625 27.273 73.8392 27.273L90.3509 27.2712C90.9274 27.2712 91.3943 27.7402 91.3943 28.3172C91.3943 28.519 91.336 28.7048 91.2387 28.8676ZM82.7034 40.5944L88.6212 29.3632H74.4653L68.5475 40.5944H82.7034Z" fill="#CCFF00"/>
<path d="M89.4295 55.4448L82.4099 42.1252C82.2436 41.8101 82.256 41.4473 82.4099 41.1535L89.4295 27.8304C89.6965 27.3207 90.3261 27.126 90.8355 27.3932C91.0301 27.4941 91.1786 27.6498 91.2741 27.8304L98.2919 41.1535C98.4582 41.4686 98.4458 41.8296 98.2919 42.1252L91.2741 55.4448C91.0053 55.9545 90.3739 56.151 89.8645 55.8837C89.67 55.7811 89.525 55.6271 89.4277 55.4448H89.4295ZM84.5092 41.6385L90.3527 52.7264L96.1926 41.6385L90.3527 30.5523L84.5092 41.6385Z" fill="#CCFF00"/>
<path d="M88.6229 53.9156L82.7052 42.6844H68.5493L74.467 53.9156H88.6229ZM84.2545 41.1535L91.2387 54.4112C91.3377 54.5705 91.3943 54.7598 91.3943 54.9616C91.3943 55.5386 90.9274 56.0058 90.3509 56.0058H73.8392C73.4642 56.004 73.1034 55.8023 72.916 55.4465L65.9318 42.1888C65.831 42.0296 65.7761 41.8402 65.7761 41.6384C65.7761 41.0615 66.243 40.5942 66.8196 40.5942H83.3313C83.7045 40.596 84.067 40.7978 84.2545 41.1535Z" fill="#CCFF00"/>
<path d="M77.3552 51.3795C77.6222 51.8892 77.4277 52.5192 76.9183 52.7865C76.409 53.0555 75.7793 52.859 75.5088 52.3493L74.7907 50.9848C74.5236 50.4751 74.72 49.845 75.2293 49.5778C75.7387 49.3106 76.3683 49.5052 76.6354 50.0149L77.3534 51.3795H77.3552Z" fill="#CCFF00"/>
<path d="M75.316 47.5071C75.583 48.0169 75.3867 48.6469 74.8773 48.9142C74.3715 49.1814 73.7384 48.9867 73.4713 48.477L72.7532 47.1125C72.4862 46.6028 72.6807 45.9727 73.1901 45.7055C73.6995 45.4382 74.3291 45.6329 74.5997 46.1426L75.3177 47.5071H75.316Z" fill="#CCFF00"/>
<path d="M80.4414 50.0875C80.7103 50.5972 80.5139 51.2273 80.0046 51.4945C79.4952 51.7618 78.8656 51.5671 78.5985 51.0574L77.8805 49.6929C77.6117 49.1831 77.808 48.5531 78.3173 48.2858C78.8267 48.0168 79.4563 48.2133 79.7234 48.723L80.4414 50.0875Z" fill="#CCFF00"/>
<path d="M78.4023 46.2152C78.6694 46.7214 78.4748 47.355 77.9654 47.6222C77.4561 47.8895 76.8265 47.6948 76.5594 47.1851L75.8378 45.8205C75.5708 45.3108 75.7671 44.6808 76.2764 44.4135C76.7858 44.1445 77.4154 44.341 77.6825 44.8507L78.4005 46.2152H78.4023Z" fill="#CCFF00"/>
<path d="M85.0945 51.7672C85.3633 52.2769 85.167 52.9069 84.6577 53.1742C84.1483 53.4432 83.5187 53.2467 83.2516 52.737L82.5336 51.3725C82.2647 50.8663 82.4611 50.2327 82.9704 49.9655C83.4798 49.6982 84.1094 49.8929 84.3765 50.4026L85.0945 51.7672Z" fill="#CCFF00"/>
<path d="M83.0554 47.8948C83.3225 48.4046 83.1279 49.0346 82.6186 49.3018C82.1092 49.5709 81.4796 49.3744 81.209 48.8647L80.4909 47.5002C80.2239 46.9905 80.4202 46.3604 80.9278 46.0932C81.4371 45.8259 82.0668 46.0206 82.3374 46.5303L83.0554 47.8948Z" fill="#CCFF00"/>
<path d="M82.8538 34.7593L80.3742 39.4688C80.1903 39.8228 79.8277 40.0245 79.4545 40.0245L73.5421 40.0263C72.9655 40.0263 72.4968 39.5591 72.4968 38.9821C72.4968 38.7804 72.5552 38.591 72.6525 38.4317L75.132 33.7258C75.3177 33.37 75.6785 33.1683 76.0553 33.1683L81.9677 33.1665C82.5443 33.1665 83.0112 33.6355 83.0112 34.2107C83.0112 34.4125 82.9563 34.6018 82.8555 34.7611L82.8538 34.7593ZM78.8267 37.9379L80.238 35.2567H76.6813L75.2665 37.9379H78.8249H78.8267Z" fill="#CCFF00"/>
<path d="M76.0269 33.4991L76.4531 32.5133C76.6653 31.7735 77.1428 31.1081 77.7512 30.632V30.6267C78.3756 30.1329 79.1573 29.825 79.9408 29.825C80.1955 29.825 80.4431 29.8603 80.6747 29.9205C81.2265 30.0692 81.6829 30.3824 82.003 30.8107C82.3213 31.2373 82.4964 31.7594 82.4964 32.3292C82.4964 32.5788 82.461 32.8407 82.3903 33.1115C82.3708 33.1841 82.3425 33.2531 82.3125 33.315L81.8314 34.4141L79.9213 33.5823L80.39 32.5151C80.4024 32.4514 80.4077 32.3894 80.4077 32.3292C80.4077 32.2124 80.3829 32.1204 80.3405 32.062C80.298 32.0071 80.2291 31.9611 80.1371 31.9381C80.084 31.9222 80.0186 31.9151 79.9425 31.9151C79.6401 31.9151 79.3147 32.0496 79.0406 32.2691H79.0388C78.7593 32.4885 78.54 32.7894 78.4534 33.1115H78.4516C78.4392 33.1593 78.4215 33.2071 78.4003 33.2549L77.937 34.3238L76.0286 33.4991H76.0269Z" fill="#CCFF00"/>
<path d="M133.328 28.8676L126.344 42.1253C126.158 42.4793 125.797 42.6828 125.42 42.6828L108.909 42.6846C108.332 42.6846 107.865 42.2156 107.865 41.6386C107.865 41.4368 107.924 41.251 108.021 41.0882L115.005 27.8305C115.191 27.4765 115.552 27.273 115.928 27.273L132.44 27.2712C133.017 27.2712 133.483 27.7402 133.483 28.3172C133.483 28.519 133.425 28.7048 133.328 28.8676ZM124.793 40.5944L130.71 29.3632H116.554L110.637 40.5944H124.793Z" fill="#CCFF00"/>
<path d="M131.517 55.4448L124.497 42.1252C124.333 41.8101 124.343 41.4473 124.497 41.1535L131.517 27.8304C131.784 27.3207 132.414 27.126 132.923 27.3932C133.118 27.4941 133.266 27.6498 133.362 27.8304L140.379 41.1535C140.546 41.4686 140.533 41.8296 140.379 42.1252L133.362 55.4448C133.093 55.9545 132.461 56.151 131.952 55.8837C131.757 55.7811 131.612 55.6271 131.515 55.4448H131.517ZM126.597 41.6385L132.44 52.7264L138.28 41.6385L132.44 30.5523L126.597 41.6385Z" fill="#CCFF00"/>
<path d="M130.71 53.9156L124.793 42.6844H110.637L116.554 53.9156H130.71ZM126.342 41.1535L133.326 54.4112C133.425 54.5705 133.482 54.7598 133.482 54.9616C133.482 55.5386 133.015 56.0058 132.438 56.0058H115.927C115.552 56.004 115.191 55.8023 115.003 55.4465L108.019 42.1888C107.92 42.0296 107.864 41.8402 107.864 41.6384C107.864 41.0615 108.33 40.5942 108.907 40.5942H125.419C125.794 40.596 126.154 40.7978 126.342 41.1535Z" fill="#CCFF00"/>
<path d="M119.444 51.3795C119.711 51.8892 119.517 52.5192 119.007 52.7865C118.498 53.0555 117.868 52.859 117.601 52.3493L116.88 50.9848C116.613 50.4751 116.809 49.845 117.318 49.5778C117.828 49.3106 118.457 49.5052 118.724 50.0149L119.443 51.3795H119.444Z" fill="#CCFF00"/>
<path d="M117.405 47.5071C117.672 48.0169 117.476 48.6469 116.968 48.9142C116.459 49.1814 115.829 48.9867 115.559 48.477L114.841 47.1125C114.574 46.6028 114.768 45.9727 115.277 45.7055C115.787 45.4382 116.416 45.6329 116.687 46.1426L117.405 47.5071Z" fill="#CCFF00"/>
<path d="M122.529 50.0875C122.798 50.5972 122.601 51.2273 122.092 51.4945C121.583 51.7618 120.953 51.5671 120.686 51.0574L119.968 49.6929C119.701 49.1831 119.895 48.5531 120.405 48.2858C120.914 48.0168 121.544 48.2133 121.811 48.723L122.529 50.0875Z" fill="#CCFF00"/>
<path d="M120.49 46.2152C120.757 46.7214 120.562 47.355 120.053 47.6222C119.543 47.8895 118.914 47.6948 118.647 47.1851L117.929 45.8205C117.66 45.3108 117.856 44.6808 118.365 44.4135C118.875 44.1445 119.504 44.341 119.771 44.8507L120.49 46.2152Z" fill="#CCFF00"/>
<path d="M127.182 51.7672C127.451 52.2769 127.255 52.9069 126.745 53.1742C126.236 53.4432 125.606 53.2467 125.339 52.737L124.621 51.3725C124.352 50.8663 124.549 50.2327 125.058 49.9655C125.567 49.6982 126.197 49.8929 126.464 50.4026L127.182 51.7672Z" fill="#CCFF00"/>
<path d="M125.143 47.8948C125.41 48.4046 125.215 49.0346 124.706 49.3018C124.197 49.5709 123.567 49.3744 123.296 48.8647L122.578 47.5002C122.311 46.9905 122.508 46.3604 123.017 46.0932C123.523 45.8259 124.156 46.0206 124.423 46.5303L125.141 47.8948H125.143Z" fill="#CCFF00"/>
<path d="M124.941 34.7593L122.463 39.4688C122.278 39.8228 121.913 40.0245 121.54 40.0245L115.628 40.0263C115.051 40.0263 114.583 39.5591 114.583 38.9821C114.583 38.7804 114.641 38.591 114.738 38.4317L117.218 33.7258C117.403 33.37 117.764 33.1683 118.141 33.1683L124.053 33.1665C124.63 33.1665 125.097 33.6355 125.097 34.2107C125.097 34.4125 125.042 34.6018 124.941 34.7611V34.7593ZM120.914 37.9379L122.325 35.2567H118.769L117.354 37.9379H120.912H120.914Z" fill="#CCFF00"/>
<path d="M118.116 33.4991L118.542 32.5133C118.756 31.7735 119.232 31.1081 119.841 30.632V30.6267C120.468 30.1329 121.247 29.825 122.03 29.825C122.285 29.825 122.532 29.8603 122.764 29.9205C123.316 30.0692 123.772 30.3824 124.092 30.8107C124.411 31.2373 124.586 31.7594 124.586 32.3292C124.586 32.5788 124.55 32.8407 124.48 33.1115C124.46 33.1841 124.434 33.2531 124.402 33.315L123.921 34.4141L122.012 33.5823L122.479 32.5151C122.492 32.4514 122.497 32.3894 122.497 32.3292C122.497 32.2124 122.474 32.1204 122.43 32.062C122.387 32.0071 122.318 31.9611 122.226 31.9381C122.173 31.9222 122.108 31.9151 122.032 31.9151C121.729 31.9151 121.408 32.0496 121.13 32.2691H121.128C120.849 32.4885 120.629 32.7894 120.543 33.1115H120.541C120.529 33.1593 120.511 33.2071 120.49 33.2549L120.026 34.3238L118.118 33.4991H118.116Z" fill="#CCFF00"/>
<path d="M175.415 28.8676L168.431 42.1253C168.246 42.4793 167.885 42.6828 167.508 42.6828L150.996 42.6846C150.42 42.6846 149.953 42.2156 149.953 41.6386C149.953 41.4368 150.011 41.251 150.109 41.0882L157.093 27.8305C157.278 27.4765 157.643 27.273 158.016 27.273L174.528 27.2712C175.104 27.2712 175.571 27.7402 175.571 28.3172C175.571 28.519 175.516 28.7048 175.415 28.8676ZM166.88 40.5944L172.798 29.3632H158.642L152.724 40.5944H166.88Z" fill="#CCFF00"/>
<path d="M173.606 55.4448L166.586 42.1252C166.422 41.8101 166.433 41.4473 166.586 41.1535L173.606 27.8304C173.873 27.3207 174.506 27.126 175.012 27.3932C175.207 27.4941 175.355 27.6498 175.451 27.8304L182.469 41.1535C182.635 41.4686 182.624 41.8296 182.469 42.1252L175.451 55.4448C175.182 55.9545 174.55 56.151 174.041 55.8837C173.85 55.7811 173.702 55.6271 173.604 55.4448H173.606ZM168.688 41.6385L174.527 52.7264L180.367 41.6385L174.527 30.5523L168.688 41.6385Z" fill="#CCFF00"/>
<path d="M172.8 53.9156L166.882 42.6844H152.726L158.644 53.9156H172.8ZM168.431 41.1535L175.415 54.4112C175.516 54.5705 175.571 54.7598 175.571 54.9616C175.571 55.5386 175.104 56.0058 174.528 56.0058H158.016C157.643 56.004 157.28 55.8023 157.093 55.4465L150.109 42.1888C150.009 42.0296 149.953 41.8402 149.953 41.6384C149.953 41.0615 150.42 40.5942 150.996 40.5942H167.508C167.883 40.596 168.244 40.7978 168.431 41.1535Z" fill="#CCFF00"/>
<path d="M161.532 51.3795C161.799 51.8892 161.604 52.5192 161.095 52.7865C160.586 53.0555 159.956 52.859 159.689 52.3493L158.971 50.9848C158.702 50.4751 158.898 49.845 159.408 49.5778C159.917 49.3106 160.547 49.5052 160.814 50.0149L161.532 51.3795Z" fill="#CCFF00"/>
<path d="M159.493 47.5071C159.76 48.0169 159.565 48.6469 159.056 48.9142C158.547 49.1814 157.917 48.9867 157.646 48.477L156.928 47.1125C156.661 46.6028 156.856 45.9727 157.365 45.7055C157.875 45.4382 158.504 45.6329 158.775 46.1426L159.493 47.5071Z" fill="#CCFF00"/>
<path d="M164.62 50.0875C164.887 50.5972 164.691 51.2273 164.181 51.4945C163.672 51.7618 163.042 51.5671 162.775 51.0574L162.057 49.6929C161.79 49.1831 161.985 48.5531 162.494 48.2858C163.003 48.0168 163.633 48.2133 163.904 48.723L164.622 50.0875H164.62Z" fill="#CCFF00"/>
<path d="M162.579 46.2152C162.848 46.7214 162.651 47.355 162.142 47.6222C161.633 47.8895 161.003 47.6948 160.736 47.1851L160.018 45.8205C159.749 45.3108 159.945 44.6808 160.455 44.4135C160.964 44.1445 161.594 44.341 161.861 44.8507L162.579 46.2152Z" fill="#CCFF00"/>
<path d="M169.271 51.7672C169.54 52.2769 169.344 52.9069 168.834 53.1742C168.325 53.4432 167.695 53.2467 167.428 52.737L166.71 51.3725C166.441 50.8663 166.638 50.2327 167.147 49.9655C167.657 49.6982 168.286 49.8929 168.553 50.4026L169.271 51.7672Z" fill="#CCFF00"/>
<path d="M167.232 47.8948C167.499 48.4046 167.305 49.0346 166.795 49.3018C166.286 49.5709 165.656 49.3744 165.389 48.8647L164.668 47.5002C164.401 46.9905 164.597 46.3604 165.106 46.0932C165.616 45.8259 166.245 46.0206 166.512 46.5303L167.23 47.8948H167.232Z" fill="#CCFF00"/>
<path d="M167.032 34.7593L164.553 39.4688C164.367 39.8228 164.002 40.0245 163.629 40.0245L157.717 40.0263C157.14 40.0263 156.672 39.5591 156.672 38.9821C156.672 38.7804 156.73 38.591 156.827 38.4317L159.307 33.7258C159.493 33.37 159.857 33.1683 160.23 33.1683L166.143 33.1665C166.719 33.1665 167.186 33.6355 167.186 34.2107C167.186 34.4125 167.131 34.6018 167.032 34.7611V34.7593ZM163.001 37.9379L164.413 35.2567H160.856L159.441 37.9379H163H163.001Z" fill="#CCFF00"/>
<path d="M160.204 33.4991L160.63 32.5133C160.844 31.7735 161.32 31.1081 161.928 30.632V30.6267C162.556 30.1329 163.334 29.825 164.118 29.825C164.372 29.825 164.62 29.8603 164.851 29.9205C165.403 30.0692 165.86 30.3824 166.18 30.8107C166.498 31.2373 166.673 31.7594 166.673 32.3292C166.673 32.5788 166.64 32.8407 166.567 33.1115C166.548 33.1841 166.521 33.2531 166.489 33.315L166.008 34.4141L164.1 33.5823L164.567 32.5151C164.579 32.4514 164.586 32.3894 164.586 32.3292C164.586 32.2124 164.561 32.1204 164.515 32.062C164.475 32.0071 164.404 31.9611 164.312 31.9381C164.259 31.9222 164.194 31.9151 164.118 31.9151C163.815 31.9151 163.493 32.0496 163.216 32.2691H163.214C162.934 32.4885 162.715 32.7894 162.628 33.1115H162.627C162.614 33.1593 162.597 33.2071 162.575 33.2549L162.112 34.3238L160.204 33.4991Z" fill="#CCFF00"/>
<path d="M97.7755 38.3359H100.83C101.801 38.3359 102.685 38.7341 103.325 39.3748L103.331 39.3801C103.971 40.0208 104.369 40.9057 104.369 41.8773C104.369 42.849 103.971 43.7339 103.331 44.3763C102.69 45.0188 101.806 45.4187 100.83 45.4187H97.7755C96.8028 45.4187 95.9185 45.0205 95.2747 44.3799C94.6345 43.7392 94.2366 42.8543 94.2366 41.8773C94.2366 40.9004 94.6345 40.019 95.2747 39.3748L95.3419 39.3146C95.9769 38.7094 96.8347 38.3359 97.7738 38.3359H97.7755ZM100.83 40.4261H97.7755C97.3971 40.4261 97.0522 40.573 96.7922 40.8119L96.7515 40.8526C96.4898 41.1181 96.3253 41.4774 96.3253 41.8773C96.3253 42.2773 96.4898 42.6384 96.7515 42.9021C97.0168 43.1675 97.3794 43.3304 97.7755 43.3304H100.83C101.228 43.3304 101.59 43.1658 101.854 42.9021H101.856C102.117 42.6419 102.278 42.2791 102.278 41.8773C102.278 41.4756 102.117 41.1163 101.856 40.8508C101.594 40.5907 101.231 40.4279 100.83 40.4279V40.4261Z" fill="#CCFF00"/>
<path d="M90.3526 42.6844C89.7761 42.6844 89.3074 42.2154 89.3074 41.6384C89.3074 41.0615 89.7761 40.5942 90.3526 40.5942H97.1653C97.7401 40.5942 98.2088 41.0615 98.2088 41.6384C98.2088 42.2154 97.7401 42.6844 97.1653 42.6844H90.3526Z" fill="#CCFF00"/>
<path d="M101.73 42.6844C101.155 42.6844 100.687 42.2154 100.687 41.6384C100.687 41.0615 101.155 40.5942 101.73 40.5942H108.543C109.119 40.5942 109.588 41.0615 109.588 41.6384C109.588 42.2154 109.119 42.6844 108.543 42.6844H101.73Z" fill="#CCFF00"/>
<path d="M139.851 38.3359H142.905C143.876 38.3359 144.76 38.7341 145.4 39.3748L145.406 39.3801C146.046 40.0208 146.444 40.9057 146.444 41.8773C146.444 42.849 146.046 43.7339 145.406 44.3763C144.764 45.0188 143.878 45.4187 142.905 45.4187H139.851C138.874 45.4187 137.99 45.0205 137.35 44.3799C136.709 43.7392 136.312 42.8543 136.312 41.8773C136.312 40.9004 136.709 40.019 137.35 39.3748L137.415 39.3146C138.05 38.7094 138.91 38.3359 139.851 38.3359ZM142.905 40.4261H139.851C139.47 40.4261 139.125 40.573 138.865 40.8119L138.828 40.8526C138.563 41.1181 138.402 41.4774 138.402 41.8773C138.402 42.2773 138.563 42.6384 138.828 42.9021C139.09 43.1675 139.453 43.3304 139.852 43.3304H142.907C143.303 43.3304 143.665 43.1658 143.931 42.9021C144.192 42.6419 144.357 42.2791 144.357 41.8773C144.357 41.4756 144.192 41.1163 143.931 40.8508C143.669 40.5907 143.306 40.4279 142.907 40.4279L142.905 40.4261Z" fill="#CCFF00"/>
<path d="M132.424 42.6844C131.848 42.6844 131.381 42.2154 131.381 41.6384C131.381 41.0615 131.848 40.5942 132.424 40.5942H139.237C139.813 40.5942 140.282 41.0615 140.282 41.6384C140.282 42.2154 139.813 42.6844 139.237 42.6844H132.424Z" fill="#CCFF00"/>
<path d="M143.805 42.6844C143.229 42.6844 142.762 42.2154 142.762 41.6384C142.762 41.0615 143.229 40.5942 143.805 40.5942H150.618C151.194 40.5942 151.661 41.0615 151.661 41.6384C151.661 42.2154 151.194 42.6844 150.618 42.6844H143.805Z" fill="#CCFF00"/>
</g>
<defs>
<clipPath id="clip0_55_338">
<rect width="347" height="326" fill="white"/>
</clipPath>
</defs>
</svg>
