<svg width="117" height="28" viewBox="0 0 117 28" fill="none" xmlns="http://www.w3.org/2000/svg">
<path fill-rule="evenodd" clip-rule="evenodd" d="M2.94775 18.5696C3.54865 17.9987 4.29978 17.8485 4.93072 17.3377C5.77198 16.6467 5.44149 15.7153 5.53162 14.4534C6.10248 14.5135 11.3604 17.7283 12.3218 18.2691C14.0344 19.2907 14.9658 19.0203 16.4981 18.0588C18.4209 16.8871 18.3909 17.2476 18.3608 14.4835C19.2021 14.6637 24.8806 17.9987 25.5116 18.5696C24.7905 19.2005 14.9057 24.9091 14.2747 24.9391C13.4936 24.9391 9.43747 22.4153 8.47603 21.8745C7.33432 21.2135 3.63879 19.2606 2.9177 18.5696H2.94775ZM10.6994 14.0628C14.8456 11.1485 13.9142 12.17 17.79 13.9427C17.3694 14.3332 15.0258 15.8054 14.3048 15.8054C13.5837 15.8054 11.3904 14.4234 10.6994 14.0328V14.0628ZM2.94775 9.46595C3.33834 8.98523 5.0509 8.08388 5.6518 7.75338C7.24419 6.82199 13.4034 3.00627 14.3348 3.03632C15.116 3.03632 21.5456 6.97221 22.9577 7.81347C23.6187 8.20406 25.1811 8.98523 25.5416 9.46595C24.8806 9.97671 23.829 10.3673 23.4084 10.818C22.7174 11.479 23.0779 12.5906 22.8976 13.5821C21.9963 13.3418 17.3994 10.5476 16.2577 9.85653C14.6052 8.86505 14.0344 8.80496 12.3218 9.79644C10.3088 10.9682 10.0985 10.4274 10.0985 13.5521C9.34734 13.3418 3.75897 10.0668 2.9177 9.46595H2.94775ZM4.99081 14.0628C3.90919 14.6938 2.70739 15.3848 1.56568 16.0458C0.904689 16.4364 0.333834 16.5866 0.153563 17.3978C-0.0267067 18.149 0.0634284 19.3808 0.243698 20.1019C0.874644 20.9131 3.2482 22.0849 4.38991 22.7158L13.103 27.7634C14.9958 28.5746 16.6182 27.1024 18.0303 26.3212C21.0649 24.5485 23.829 22.9562 26.7134 21.2736C27.5847 20.7629 28.3358 20.5526 28.456 19.5611C28.9367 16.0759 27.2842 16.4364 23.5286 14.0628C24.5802 13.3117 28.0053 11.6292 28.3057 10.9081C28.7564 9.85653 28.456 8.05383 27.9152 7.57311C27.1941 6.91212 15.2061 0.061859 14.5151 0.00176896C12.9828 -0.118411 3.36838 5.92064 1.05491 7.24262C-0.146887 7.90361 -0.116842 9.52604 0.153563 10.6377C0.454014 11.8996 3.78901 12.831 4.99081 14.0929V14.0628Z" fill="#FCFCFC"/>
<path fill-rule="evenodd" clip-rule="evenodd" d="M34.3452 18.96C35.1865 22.8658 38.9421 25.3596 43.8094 24.6986C47.8354 24.1277 51.3206 20.4923 49.5179 15.9555C47.5951 11.1483 42.217 12.8909 39.6632 10.4572C36.5385 7.48277 43.8995 3.33656 46.1229 9.61597C46.874 9.40565 46.6336 9.16529 48.5265 8.68457L49.4579 8.32403C47.7453 1.77422 37.7403 1.59395 35.6071 7.39264C34.7358 9.7061 35.6972 12.0196 37.0192 13.1312C40.5946 16.1057 46.904 14.6936 46.213 18.9299C45.8825 20.8828 43.6892 21.8142 41.4058 21.3035C38.5215 20.6425 38.3412 18.5393 37.7403 17.4277C37.1694 17.638 36.7488 17.9985 36.0878 18.299C35.6672 18.4792 35.6371 18.4792 35.2466 18.5994L34.3452 18.99V18.96Z" fill="#FCFCFC"/>
<path fill-rule="evenodd" clip-rule="evenodd" d="M54.9859 15.445C56.1277 11.4791 61.8362 11.449 62.7676 15.5051L54.9859 15.445ZM63.0981 19.3809C61.1752 23.4971 54.986 22.085 54.9559 18.2392H66.0726C66.2228 13.5221 64.5403 10.5176 60.2438 9.7665C50.99 8.14407 48.1357 21.6643 56.5182 24.3684C60.8147 25.7505 64.9309 23.7074 65.9524 20.6728C65.5318 20.4325 64.9308 20.4024 64.39 20.132C63.8192 19.8616 63.669 19.5612 63.0981 19.3509V19.3809Z" fill="#FCFCFC"/>
<path fill-rule="evenodd" clip-rule="evenodd" d="M96.5078 15.4749C97.4993 11.4789 103.238 11.4188 104.289 15.4749H96.5078ZM104.68 19.3807C103.568 20.883 102.667 22.2049 99.8728 21.7843C98.0401 21.5139 96.5979 20.0717 96.4176 18.239L107.594 18.1789C107.775 13.582 106.002 10.5174 101.826 9.7663C92.4818 8.14387 89.7477 21.3937 97.7997 24.278C102.006 25.7803 106.513 23.8574 107.414 20.6726C106.903 20.4022 106.363 20.4022 105.822 20.1018C105.251 19.8013 105.251 19.6211 104.68 19.3807Z" fill="#FCFCFC"/>
<path fill-rule="evenodd" clip-rule="evenodd" d="M79.1418 19.3804C78.3606 20.0414 77.5194 22.2948 74.2144 21.5437C70.2785 20.6724 69.8879 14.2427 73.944 12.9808C76.8283 12.0795 78.0301 13.8822 78.9615 14.8436C79.5023 14.6333 79.7727 14.3028 80.4337 14.0324C80.9445 13.8221 81.6055 13.762 82.0261 13.5517C79.4122 7.1521 67.4843 8.80458 67.6946 17.4275C67.7848 21.3333 70.3386 23.8872 73.5534 24.6383C76.0772 25.2392 79.2319 24.5482 80.9445 22.6854C81.4553 22.1145 81.966 21.4535 82.1763 20.7324L81.2149 20.402C80.0732 20.0715 80.0732 19.9513 79.1718 19.4105L79.1418 19.3804Z" fill="#FCFCFC"/>
<path fill-rule="evenodd" clip-rule="evenodd" d="M108.616 13.0415L110.569 13.1016L110.629 24.3685H113.964C114.144 22.2954 113.994 19.7115 113.994 17.6083C113.994 11.9599 113.363 13.2218 116.127 13.0115L116.067 10.1271L113.964 10.007V5.10962H110.569V10.007L108.646 10.1271V13.0115L108.616 13.0415Z" fill="#FCFCFC"/>
<path fill-rule="evenodd" clip-rule="evenodd" d="M87.104 12.1398L87.0439 10.1268H83.8291L83.769 24.3381H87.1942C87.4345 18.0887 85.6318 12.1098 92.1516 13.582C92.3619 12.0497 93.1731 11.7492 93.6839 10.7578C92.7825 10.0667 91.5207 9.586 89.8982 9.97658C88.1857 10.3672 88.0054 11.2685 87.1341 12.1398H87.104Z" fill="#FCFCFC"/>
</svg>
